<svg xmlns="http://www.w3.org/2000/svg" width="1920" height="1080"><path d="M428,1355L-211,1364L822,1362Z" fill="#9171b4" stroke="#9171b4" stroke-width="1.51"/><path d="M97,-283L664,-250L1028,-280Z" fill="#dedeed" stroke="#dedeed" stroke-width="1.51"/><path d="M1028,-280L1420,-200L1764,-244Z" fill="#b8add5" stroke="#b8add5" stroke-width="1.51"/><path d="M1764,-244L1867,-206L2078,-204Z" fill="#a789c3" stroke="#a789c3" stroke-width="1.51"/><path d="M2032,118L2056,191L2078,-204Z" fill="#9879b9" stroke="#9879b9" stroke-width="1.51"/><path d="M2012,-62L2032,118L2078,-204Z" fill="#9d7dbc" stroke="#9d7dbc" stroke-width="1.51"/><path d="M2056,191L2009,261L2084,412Z" fill="#886bb1" stroke="#886bb1" stroke-width="1.51"/><path d="M2078,-204L2056,191L2084,412Z" fill="#9274b6" stroke="#9274b6" stroke-width="1.51"/><path d="M2050,1138L2094,1254L2113,1029Z" fill="#4d1d89" stroke="#4d1d89" stroke-width="1.51"/><path d="M1883,806L2000,969L2117,749Z" fill="#61439b" stroke="#61439b" stroke-width="1.51"/><path d="M2046,585L1974,660L2117,749Z" fill="#6c50a2" stroke="#6c50a2" stroke-width="1.51"/><path d="M2113,1029L2094,1254L2147,769Z" fill="#532a8e" stroke="#532a8e" stroke-width="1.51"/><path d="M2117,749L2000,969L2147,769Z" fill="#5f3f99" stroke="#5f3f99" stroke-width="1.51"/><path d="M2000,969L2113,1029L2147,769Z" fill="#5a3593" stroke="#5a3593" stroke-width="1.51"/><path d="M2078,-204L2084,412L2147,769Z" fill="#8366ae" stroke="#8366ae" stroke-width="1.51"/><path d="M2046,585L2117,749L2147,769Z" fill="#674b9e" stroke="#674b9e" stroke-width="1.51"/><path d="M2084,412L2046,585L2147,769Z" fill="#7053a3" stroke="#7053a3" stroke-width="1.51"/><path d="M1984,-93L2012,-62L2078,-204Z" fill="#a081be" stroke="#a081be" stroke-width="1.51"/><path d="M1938,459L2046,585L2084,412Z" fill="#7a5da9" stroke="#7a5da9" stroke-width="1.51"/><path d="M1974,660L1883,806L2117,749Z" fill="#684da1" stroke="#684da1" stroke-width="1.51"/><path d="M2000,969L2050,1138L2113,1029Z" fill="#542a8e" stroke="#542a8e" stroke-width="1.51"/><path d="M2012,-62L1973,106L2032,118Z" fill="#987bba" stroke="#987bba" stroke-width="1.51"/><path d="M2009,261L1938,459L2084,412Z" fill="#8367af" stroke="#8367af" stroke-width="1.51"/><path d="M2050,1138L1863,1194L2094,1254Z" fill="#4d1c89" stroke="#4d1c89" stroke-width="1.51"/><path d="M1863,1194L1888,1339L2094,1254Z" fill="#4c1a88" stroke="#4c1a88" stroke-width="1.51"/><path d="M1046,1319L822,1362L1388,1355Z" fill="#6c4ea0" stroke="#6c4ea0" stroke-width="1.51"/><path d="M1867,-206L1984,-93L2078,-204Z" fill="#a384c0" stroke="#a384c0" stroke-width="1.51"/><path d="M1824,992L1863,1194L2000,969Z" fill="#593093" stroke="#593093" stroke-width="1.51"/><path d="M1938,459L1901,533L2046,585Z" fill="#795da9" stroke="#795da9" stroke-width="1.51"/><path d="M2000,969L1863,1194L2050,1138Z" fill="#54288e" stroke="#54288e" stroke-width="1.51"/><path d="M2032,118L1973,106L2056,191Z" fill="#9376b7" stroke="#9376b7" stroke-width="1.51"/><path d="M1973,106L2009,261L2056,191Z" fill="#9074b6" stroke="#9074b6" stroke-width="1.51"/><path d="M1901,533L1974,660L2046,585Z" fill="#7358a6" stroke="#7358a6" stroke-width="1.51"/><path d="M1840,441L1938,459L2009,261Z" fill="#846ab1" stroke="#846ab1" stroke-width="1.51"/><path d="M1765,118L1771,306L1973,106Z" fill="#977dbc" stroke="#977dbc" stroke-width="1.51"/><path d="M1752,-69L1973,106L1984,-93Z" fill="#9f82bf" stroke="#9f82bf" stroke-width="1.51"/><path d="M1883,806L1824,992L2000,969Z" fill="#603e99" stroke="#603e99" stroke-width="1.51"/><path d="M1771,306L1840,441L2009,261Z" fill="#8a71b5" stroke="#8a71b5" stroke-width="1.51"/><path d="M1973,106L1771,306L2009,261Z" fill="#9175b8" stroke="#9175b8" stroke-width="1.51"/><path d="M1984,-93L1973,106L2012,-62Z" fill="#9d7ebc" stroke="#9d7ebc" stroke-width="1.51"/><path d="M1752,-69L1765,118L1973,106Z" fill="#9e84c0" stroke="#9e84c0" stroke-width="1.51"/><path d="M1836,729L1883,806L1974,660Z" fill="#6b52a4" stroke="#6b52a4" stroke-width="1.51"/><path d="M1420,-200L1566,-185L1764,-244Z" fill="#b09fcd" stroke="#b09fcd" stroke-width="1.51"/><path d="M1867,-206L1752,-69L1984,-93Z" fill="#a588c3" stroke="#a588c3" stroke-width="1.51"/><path d="M1901,533L1836,729L1974,660Z" fill="#7258a7" stroke="#7258a7" stroke-width="1.51"/><path d="M1801,824L1824,992L1883,806Z" fill="#65479f" stroke="#65479f" stroke-width="1.51"/><path d="M1840,441L1901,533L1938,459Z" fill="#7f64ae" stroke="#7f64ae" stroke-width="1.51"/><path d="M1811,474L1647,685L1836,729Z" fill="#7761ac" stroke="#7761ac" stroke-width="1.51"/><path d="M1824,992L1718,1102L1863,1194Z" fill="#5a3294" stroke="#5a3294" stroke-width="1.51"/><path d="M1863,1194L1775,1358L1888,1339Z" fill="#4e1e89" stroke="#4e1e89" stroke-width="1.51"/><path d="M1840,441L1811,474L1901,533Z" fill="#7f66af" stroke="#7f66af" stroke-width="1.51"/><path d="M1811,474L1836,729L1901,533Z" fill="#785fab" stroke="#785fab" stroke-width="1.51"/><path d="M1836,729L1801,824L1883,806Z" fill="#6a50a3" stroke="#6a50a3" stroke-width="1.51"/><path d="M1624,540L1647,685L1811,474Z" fill="#7e6ab0" stroke="#7e6ab0" stroke-width="1.51"/><path d="M1765,118L1689,223L1771,306Z" fill="#9781be" stroke="#9781be" stroke-width="1.51"/><path d="M1718,1102L1775,1358L1863,1194Z" fill="#54288f" stroke="#54288f" stroke-width="1.51"/><path d="M1764,-244L1752,-69L1867,-206Z" fill="#a98ec6" stroke="#a98ec6" stroke-width="1.51"/><path d="M1718,1102L1604,1167L1775,1358Z" fill="#582f92" stroke="#582f92" stroke-width="1.51"/><path d="M1801,824L1596,964L1824,992Z" fill="#65489f" stroke="#65489f" stroke-width="1.51"/><path d="M1685,378L1811,474L1840,441Z" fill="#866fb4" stroke="#866fb4" stroke-width="1.51"/><path d="M1771,306L1685,378L1840,441Z" fill="#8a74b7" stroke="#8a74b7" stroke-width="1.51"/><path d="M1647,685L1801,824L1836,729Z" fill="#6f59a8" stroke="#6f59a8" stroke-width="1.51"/><path d="M1565,1268L1388,1355L1775,1358Z" fill="#573091" stroke="#573091" stroke-width="1.51"/><path d="M1596,964L1718,1102L1824,992Z" fill="#61409b" stroke="#61409b" stroke-width="1.51"/><path d="M1752,-69L1659,-53L1765,118Z" fill="#a48ec5" stroke="#a48ec5" stroke-width="1.51"/><path d="M1604,1167L1565,1268L1775,1358Z" fill="#572f91" stroke="#572f91" stroke-width="1.51"/><path d="M1585,797L1596,964L1801,824Z" fill="#6c54a4" stroke="#6c54a4" stroke-width="1.51"/><path d="M1685,378L1624,540L1811,474Z" fill="#8671b4" stroke="#8671b4" stroke-width="1.51"/><path d="M1647,685L1585,797L1801,824Z" fill="#715da9" stroke="#715da9" stroke-width="1.51"/><path d="M1659,-53L1752,-69L1764,-244Z" fill="#a992c7" stroke="#a992c7" stroke-width="1.51"/><path d="M1566,-185L1659,-53L1764,-244Z" fill="#ad98ca" stroke="#ad98ca" stroke-width="1.51"/><path d="M1659,-53L1561,131L1765,118Z" fill="#a38fc5" stroke="#a38fc5" stroke-width="1.51"/><path d="M1689,223L1685,378L1771,306Z" fill="#917dbc" stroke="#917dbc" stroke-width="1.51"/><path d="M1561,131L1689,223L1765,118Z" fill="#9d8ac3" stroke="#9d8ac3" stroke-width="1.51"/><path d="M1596,964L1604,1167L1718,1102Z" fill="#613f9a" stroke="#613f9a" stroke-width="1.51"/><path d="M1507,54L1561,131L1659,-53Z" fill="#a696c9" stroke="#a696c9" stroke-width="1.51"/><path d="M1479,320L1624,540L1685,378Z" fill="#8d7dbb" stroke="#8d7dbb" stroke-width="1.51"/><path d="M1479,320L1685,378L1689,223Z" fill="#9483bf" stroke="#9483bf" stroke-width="1.51"/><path d="M1561,131L1479,320L1689,223Z" fill="#9b8cc3" stroke="#9b8cc3" stroke-width="1.51"/><path d="M1596,964L1454,1007L1604,1167Z" fill="#66499f" stroke="#66499f" stroke-width="1.51"/><path d="M1624,540L1500,605L1647,685Z" fill="#7f6eb2" stroke="#7f6eb2" stroke-width="1.51"/><path d="M1566,-185L1464,-84L1659,-53Z" fill="#ae9dcd" stroke="#ae9dcd" stroke-width="1.51"/><path d="M1464,-84L1507,54L1659,-53Z" fill="#ab9bcb" stroke="#ab9bcb" stroke-width="1.51"/><path d="M1440,216L1479,320L1561,131Z" fill="#9e92c6" stroke="#9e92c6" stroke-width="1.51"/><path d="M1479,320L1500,605L1624,540Z" fill="#8a7bb9" stroke="#8a7bb9" stroke-width="1.51"/><path d="M1492,760L1585,797L1647,685Z" fill="#7566ae" stroke="#7566ae" stroke-width="1.51"/><path d="M1500,605L1492,760L1647,685Z" fill="#7a6cb1" stroke="#7a6cb1" stroke-width="1.51"/><path d="M1585,797L1413,840L1596,964Z" fill="#705ca9" stroke="#705ca9" stroke-width="1.51"/><path d="M1454,1007L1504,1196L1604,1167Z" fill="#63439c" stroke="#63439c" stroke-width="1.51"/><path d="M1413,1292L1388,1355L1565,1268Z" fill="#5d3a96" stroke="#5d3a96" stroke-width="1.51"/><path d="M1492,760L1413,840L1585,797Z" fill="#7566ae" stroke="#7566ae" stroke-width="1.51"/><path d="M1413,840L1454,1007L1596,964Z" fill="#6e58a7" stroke="#6e58a7" stroke-width="1.51"/><path d="M1504,1196L1565,1268L1604,1167Z" fill="#5d3996" stroke="#5d3996" stroke-width="1.51"/><path d="M1135,1298L1046,1319L1388,1355Z" fill="#684b9f" stroke="#684b9f" stroke-width="1.51"/><path d="M1413,840L1382,911L1454,1007Z" fill="#725fab" stroke="#725fab" stroke-width="1.51"/><path d="M1479,320L1273,566L1500,605Z" fill="#8d83bd" stroke="#8d83bd" stroke-width="1.51"/><path d="M1420,-200L1464,-84L1566,-185Z" fill="#b2a4d1" stroke="#b2a4d1" stroke-width="1.51"/><path d="M1504,1196L1413,1292L1565,1268Z" fill="#5e3b97" stroke="#5e3b97" stroke-width="1.51"/><path d="M1507,54L1440,216L1561,131Z" fill="#a497c9" stroke="#a497c9" stroke-width="1.51"/><path d="M1264,320L1273,566L1479,320Z" fill="#9690c5" stroke="#9690c5" stroke-width="1.51"/><path d="M1387,745L1492,760L1500,605Z" fill="#7c71b4" stroke="#7c71b4" stroke-width="1.51"/><path d="M1454,1007L1343,1190L1504,1196Z" fill="#66499f" stroke="#66499f" stroke-width="1.51"/><path d="M1317,147L1440,216L1507,54Z" fill="#a69dcc" stroke="#a69dcc" stroke-width="1.51"/><path d="M1464,-84L1359,-83L1507,54Z" fill="#afa3d0" stroke="#afa3d0" stroke-width="1.51"/><path d="M1359,-83L1317,147L1507,54Z" fill="#ada4d0" stroke="#ada4d0" stroke-width="1.51"/><path d="M1343,1190L1413,1292L1504,1196Z" fill="#62429b" stroke="#62429b" stroke-width="1.51"/><path d="M1273,566L1387,745L1500,605Z" fill="#847bb9" stroke="#847bb9" stroke-width="1.51"/><path d="M1028,-280L1121,-173L1420,-200Z" fill="#bfbbdb" stroke="#bfbbdb" stroke-width="1.51"/><path d="M1420,-200L1371,-153L1464,-84Z" fill="#b4aad3" stroke="#b4aad3" stroke-width="1.51"/><path d="M1387,745L1413,840L1492,760Z" fill="#786cb1" stroke="#786cb1" stroke-width="1.51"/><path d="M1261,1040L1343,1190L1454,1007Z" fill="#6c54a5" stroke="#6c54a5" stroke-width="1.51"/><path d="M1440,216L1318,228L1479,320Z" fill="#9e96c8" stroke="#9e96c8" stroke-width="1.51"/><path d="M1318,228L1264,320L1479,320Z" fill="#9e98c9" stroke="#9e98c9" stroke-width="1.51"/><path d="M1371,-153L1359,-83L1464,-84Z" fill="#b4aad2" stroke="#b4aad2" stroke-width="1.51"/><path d="M1121,-173L1371,-153L1420,-200Z" fill="#b9b4d8" stroke="#b9b4d8" stroke-width="1.51"/><path d="M1382,911L1261,1040L1454,1007Z" fill="#705ca9" stroke="#705ca9" stroke-width="1.51"/><path d="M1264,320L1231,541L1273,566Z" fill="#9491c4" stroke="#9491c4" stroke-width="1.51"/><path d="M1317,147L1318,228L1440,216Z" fill="#a59ecc" stroke="#a59ecc" stroke-width="1.51"/><path d="M1188,93L1317,147L1359,-83Z" fill="#b0acd4" stroke="#b0acd4" stroke-width="1.51"/><path d="M1201,-64L1188,93L1359,-83Z" fill="#b5b1d6" stroke="#b5b1d6" stroke-width="1.51"/><path d="M1343,1190L1388,1355L1413,1292Z" fill="#61429a" stroke="#61429a" stroke-width="1.51"/><path d="M1387,745L1382,911L1413,840Z" fill="#776ab0" stroke="#776ab0" stroke-width="1.51"/><path d="M1273,566L1118,672L1387,745Z" fill="#8783bd" stroke="#8783bd" stroke-width="1.51"/><path d="M1118,672L1120,765L1387,745Z" fill="#8481bc" stroke="#8481bc" stroke-width="1.51"/><path d="M1120,765L1382,911L1387,745Z" fill="#7c74b5" stroke="#7c74b5" stroke-width="1.51"/><path d="M1343,1190L1135,1298L1388,1355Z" fill="#65499e" stroke="#65499e" stroke-width="1.51"/><path d="M1198,1034L1261,1040L1382,911Z" fill="#7361ac" stroke="#7361ac" stroke-width="1.51"/><path d="M1120,765L1198,1034L1382,911Z" fill="#796db2" stroke="#796db2" stroke-width="1.51"/><path d="M1261,1040L1207,1139L1343,1190Z" fill="#6d55a5" stroke="#6d55a5" stroke-width="1.51"/><path d="M1201,-64L1359,-83L1371,-153Z" fill="#b6b0d6" stroke="#b6b0d6" stroke-width="1.51"/><path d="M1121,-173L1201,-64L1371,-153Z" fill="#bbb6d9" stroke="#bbb6d9" stroke-width="1.51"/><path d="M1194,338L1231,541L1264,320Z" fill="#9b99c9" stroke="#9b99c9" stroke-width="1.51"/><path d="M1207,1139L1135,1298L1343,1190Z" fill="#6b51a3" stroke="#6b51a3" stroke-width="1.51"/><path d="M1239,260L1264,320L1318,228Z" fill="#a2a0cd" stroke="#a2a0cd" stroke-width="1.51"/><path d="M1188,93L1239,260L1317,147Z" fill="#aba8d2" stroke="#aba8d2" stroke-width="1.51"/><path d="M1317,147L1239,260L1318,228Z" fill="#a6a2cf" stroke="#a6a2cf" stroke-width="1.51"/><path d="M1120,765L1035,964L1198,1034Z" fill="#7e71b4" stroke="#7e71b4" stroke-width="1.51"/><path d="M1198,1034L1207,1139L1261,1040Z" fill="#725eaa" stroke="#725eaa" stroke-width="1.51"/><path d="M1231,541L1118,672L1273,566Z" fill="#8e8ac0" stroke="#8e8ac0" stroke-width="1.51"/><path d="M1239,260L1194,338L1264,320Z" fill="#a2a0cc" stroke="#a2a0cc" stroke-width="1.51"/><path d="M1072,43L1188,93L1201,-64Z" fill="#b8b4d7" stroke="#b8b4d7" stroke-width="1.51"/><path d="M1194,338L973,517L1231,541Z" fill="#9b98c8" stroke="#9b98c8" stroke-width="1.51"/><path d="M993,183L1194,338L1239,260Z" fill="#aaa7d1" stroke="#aaa7d1" stroke-width="1.51"/><path d="M1188,93L993,183L1239,260Z" fill="#b0add4" stroke="#b0add4" stroke-width="1.51"/><path d="M973,517L1118,672L1231,541Z" fill="#9490c4" stroke="#9490c4" stroke-width="1.51"/><path d="M1000,853L1035,964L1120,765Z" fill="#857bb9" stroke="#857bb9" stroke-width="1.51"/><path d="M983,323L973,517L1194,338Z" fill="#a4a2cd" stroke="#a4a2cd" stroke-width="1.51"/><path d="M993,183L983,323L1194,338Z" fill="#acaad2" stroke="#acaad2" stroke-width="1.51"/><path d="M1121,-173L1070,-101L1201,-64Z" fill="#bfbbdb" stroke="#bfbbdb" stroke-width="1.51"/><path d="M1070,-101L1072,43L1201,-64Z" fill="#bdb9da" stroke="#bdb9da" stroke-width="1.51"/><path d="M1198,1034L1014,1175L1207,1139Z" fill="#745caa" stroke="#745caa" stroke-width="1.51"/><path d="M1014,1175L1135,1298L1207,1139Z" fill="#7157a6" stroke="#7157a6" stroke-width="1.51"/><path d="M1072,43L993,183L1188,93Z" fill="#b7b4d7" stroke="#b7b4d7" stroke-width="1.51"/><path d="M1035,964L1014,1175L1198,1034Z" fill="#7965ae" stroke="#7965ae" stroke-width="1.51"/><path d="M973,517L984,707L1118,672Z" fill="#9590c4" stroke="#9590c4" stroke-width="1.51"/><path d="M1014,1175L1046,1319L1135,1298Z" fill="#7155a4" stroke="#7155a4" stroke-width="1.51"/><path d="M1118,672L984,707L1120,765Z" fill="#8c88c0" stroke="#8c88c0" stroke-width="1.51"/><path d="M1028,-280L1070,-101L1121,-173Z" fill="#c4c0de" stroke="#c4c0de" stroke-width="1.51"/><path d="M984,707L1000,853L1120,765Z" fill="#8a85be" stroke="#8a85be" stroke-width="1.51"/><path d="M893,-159L921,-109L1028,-280Z" fill="#cac7e1" stroke="#cac7e1" stroke-width="1.51"/><path d="M925,1146L1014,1175L1035,964Z" fill="#7c66ae" stroke="#7c66ae" stroke-width="1.51"/><path d="M870,1041L925,1146L1035,964Z" fill="#816cb2" stroke="#816cb2" stroke-width="1.51"/><path d="M1028,-280L921,-109L1070,-101Z" fill="#c6c3df" stroke="#c6c3df" stroke-width="1.51"/><path d="M881,127L993,183L1072,43Z" fill="#bbb9d9" stroke="#bbb9d9" stroke-width="1.51"/><path d="M1070,-101L921,-109L1072,43Z" fill="#c2bfdc" stroke="#c2bfdc" stroke-width="1.51"/><path d="M921,-109L881,127L1072,43Z" fill="#c1bedc" stroke="#c1bedc" stroke-width="1.51"/><path d="M97,-283L237,-225L664,-250Z" fill="#ebeaf4" stroke="#ebeaf4" stroke-width="1.51"/><path d="M878,471L973,517L983,323Z" fill="#a6a3cd" stroke="#a6a3cd" stroke-width="1.51"/><path d="M881,127L934,181L993,183Z" fill="#bab9d9" stroke="#bab9d9" stroke-width="1.51"/><path d="M1014,1175L925,1146L1046,1319Z" fill="#775ca8" stroke="#775ca8" stroke-width="1.51"/><path d="M925,1146L822,1362L1046,1319Z" fill="#775aa7" stroke="#775aa7" stroke-width="1.51"/><path d="M934,181L983,323L993,183Z" fill="#b4b2d6" stroke="#b4b2d6" stroke-width="1.51"/><path d="M664,-250L893,-159L1028,-280Z" fill="#d0cde5" stroke="#d0cde5" stroke-width="1.51"/><path d="M1000,853L844,856L1035,964Z" fill="#887cb9" stroke="#887cb9" stroke-width="1.51"/><path d="M844,856L870,1041L1035,964Z" fill="#8777b7" stroke="#8777b7" stroke-width="1.51"/><path d="M973,517L840,703L984,707Z" fill="#9894c6" stroke="#9894c6" stroke-width="1.51"/><path d="M793,637L840,703L973,517Z" fill="#9d9ac9" stroke="#9d9ac9" stroke-width="1.51"/><path d="M984,707L844,856L1000,853Z" fill="#8d86be" stroke="#8d86be" stroke-width="1.51"/><path d="M832,419L878,471L983,323Z" fill="#aba9d0" stroke="#aba9d0" stroke-width="1.51"/><path d="M840,703L844,856L984,707Z" fill="#928ec3" stroke="#928ec3" stroke-width="1.51"/><path d="M878,471L793,637L973,517Z" fill="#a29eca" stroke="#a29eca" stroke-width="1.51"/><path d="M934,181L732,309L983,323Z" fill="#b5b4d7" stroke="#b5b4d7" stroke-width="1.51"/><path d="M732,309L832,419L983,323Z" fill="#b1b0d4" stroke="#b1b0d4" stroke-width="1.51"/><path d="M780,503L793,637L878,471Z" fill="#a5a3cd" stroke="#a5a3cd" stroke-width="1.51"/><path d="M719,-101L784,141L881,127Z" fill="#c8c7e0" stroke="#c8c7e0" stroke-width="1.51"/><path d="M719,-101L881,127L921,-109Z" fill="#cac8e1" stroke="#cac8e1" stroke-width="1.51"/><path d="M760,1123L822,1362L925,1146Z" fill="#7f64ad" stroke="#7f64ad" stroke-width="1.51"/><path d="M881,127L784,141L934,181Z" fill="#bfbedb" stroke="#bfbedb" stroke-width="1.51"/><path d="M784,141L732,309L934,181Z" fill="#bdbcdb" stroke="#bdbcdb" stroke-width="1.51"/><path d="M760,1123L679,1233L822,1362Z" fill="#8266af" stroke="#8266af" stroke-width="1.51"/><path d="M870,1041L760,1123L925,1146Z" fill="#836cb2" stroke="#836cb2" stroke-width="1.51"/><path d="M893,-159L719,-101L921,-109Z" fill="#cecbe3" stroke="#cecbe3" stroke-width="1.51"/><path d="M840,703L766,811L844,856Z" fill="#948fc4" stroke="#948fc4" stroke-width="1.51"/><path d="M844,856L688,1011L870,1041Z" fill="#8c7cba" stroke="#8c7cba" stroke-width="1.51"/><path d="M664,-250L719,-101L893,-159Z" fill="#d3d2e7" stroke="#d3d2e7" stroke-width="1.51"/><path d="M808,450L780,503L878,471Z" fill="#aaa7cf" stroke="#aaa7cf" stroke-width="1.51"/><path d="M832,419L808,450L878,471Z" fill="#aba9d1" stroke="#aba9d1" stroke-width="1.51"/><path d="M688,1011L760,1123L870,1041Z" fill="#8975b7" stroke="#8975b7" stroke-width="1.51"/><path d="M719,-101L613,19L784,141Z" fill="#cecee4" stroke="#cecee4" stroke-width="1.51"/><path d="M520,1272L428,1355L822,1362Z" fill="#8669b0" stroke="#8669b0" stroke-width="1.51"/><path d="M766,811L688,1011L844,856Z" fill="#9186c0" stroke="#9186c0" stroke-width="1.51"/><path d="M793,637L766,811L840,703Z" fill="#9997c8" stroke="#9997c8" stroke-width="1.51"/><path d="M732,309L808,450L832,419Z" fill="#b1b0d4" stroke="#b1b0d4" stroke-width="1.51"/><path d="M658,797L766,811L793,637Z" fill="#9a98c9" stroke="#9a98c9" stroke-width="1.51"/><path d="M679,1233L520,1272L822,1362Z" fill="#8467af" stroke="#8467af" stroke-width="1.51"/><path d="M658,797L688,1011L766,811Z" fill="#968cc3" stroke="#968cc3" stroke-width="1.51"/><path d="M630,604L658,797L793,637Z" fill="#a29fcd" stroke="#a29fcd" stroke-width="1.51"/><path d="M780,503L630,604L793,637Z" fill="#a7a4ce" stroke="#a7a4ce" stroke-width="1.51"/><path d="M732,309L780,503L808,450Z" fill="#b0afd4" stroke="#b0afd4" stroke-width="1.51"/><path d="M732,309L565,339L780,503Z" fill="#b7b6d8" stroke="#b7b6d8" stroke-width="1.51"/><path d="M237,-225L540,-182L664,-250Z" fill="#e3e2ef" stroke="#e3e2ef" stroke-width="1.51"/><path d="M565,339L630,604L780,503Z" fill="#b1b0d5" stroke="#b1b0d5" stroke-width="1.51"/><path d="M613,19L502,142L784,141Z" fill="#cecee4" stroke="#cecee4" stroke-width="1.51"/><path d="M538,289L732,309L784,141Z" fill="#c1c1de" stroke="#c1c1de" stroke-width="1.51"/><path d="M502,142L538,289L784,141Z" fill="#c9c9e3" stroke="#c9c9e3" stroke-width="1.51"/><path d="M630,604L569,721L658,797Z" fill="#a3a1ce" stroke="#a3a1ce" stroke-width="1.51"/><path d="M688,1011L635,1140L760,1123Z" fill="#8c76b8" stroke="#8c76b8" stroke-width="1.51"/><path d="M635,1140L679,1233L760,1123Z" fill="#886fb4" stroke="#886fb4" stroke-width="1.51"/><path d="M237,-225L424,-160L540,-182Z" fill="#e6e5f1" stroke="#e6e5f1" stroke-width="1.51"/><path d="M565,339L509,577L630,604Z" fill="#b4b3d6" stroke="#b4b3d6" stroke-width="1.51"/><path d="M664,-250L582,-76L719,-101Z" fill="#d7d7e9" stroke="#d7d7e9" stroke-width="1.51"/><path d="M582,-76L613,19L719,-101Z" fill="#d5d5e8" stroke="#d5d5e8" stroke-width="1.51"/><path d="M538,289L565,339L732,309Z" fill="#c0c1de" stroke="#c0c1de" stroke-width="1.51"/><path d="M540,-182L582,-76L664,-250Z" fill="#dbdbec" stroke="#dbdbec" stroke-width="1.51"/><path d="M658,797L553,1060L688,1011Z" fill="#9587c0" stroke="#9587c0" stroke-width="1.51"/><path d="M456,444L509,577L565,339Z" fill="#bbbada" stroke="#bbbada" stroke-width="1.51"/><path d="M421,946L553,1060L658,797Z" fill="#9b8dc3" stroke="#9b8dc3" stroke-width="1.51"/><path d="M553,1060L635,1140L688,1011Z" fill="#907bbb" stroke="#907bbb" stroke-width="1.51"/><path d="M635,1140L520,1272L679,1233Z" fill="#8a6fb4" stroke="#8a6fb4" stroke-width="1.51"/><path d="M569,721L423,780L658,797Z" fill="#a3a0cd" stroke="#a3a0cd" stroke-width="1.51"/><path d="M423,780L421,946L658,797Z" fill="#a199c9" stroke="#a199c9" stroke-width="1.51"/><path d="M509,577L569,721L630,604Z" fill="#aba9d1" stroke="#aba9d1" stroke-width="1.51"/><path d="M553,1060L447,1107L635,1140Z" fill="#927cbb" stroke="#927cbb" stroke-width="1.51"/><path d="M447,1107L520,1272L635,1140Z" fill="#9076b8" stroke="#9076b8" stroke-width="1.51"/><path d="M582,-76L441,-64L613,19Z" fill="#d9d8eb" stroke="#d9d8eb" stroke-width="1.51"/><path d="M441,-64L502,142L613,19Z" fill="#d7d7e9" stroke="#d7d7e9" stroke-width="1.51"/><path d="M197,1244L-211,1364L428,1355Z" fill="#9a79b9" stroke="#9a79b9" stroke-width="1.51"/><path d="M502,142L502,294L538,289Z" fill="#cacae3" stroke="#cacae3" stroke-width="1.51"/><path d="M540,-182L441,-64L582,-76Z" fill="#dddced" stroke="#dddced" stroke-width="1.51"/><path d="M-46,1263L-211,1364L197,1244Z" fill="#9f80bd" stroke="#9f80bd" stroke-width="1.51"/><path d="M502,294L456,444L565,339Z" fill="#c1c2df" stroke="#c1c2df" stroke-width="1.51"/><path d="M509,577L370,685L569,721Z" fill="#aeabd2" stroke="#aeabd2" stroke-width="1.51"/><path d="M370,685L423,780L569,721Z" fill="#aaa7d1" stroke="#aaa7d1" stroke-width="1.51"/><path d="M424,-160L441,-64L540,-182Z" fill="#e1e0ef" stroke="#e1e0ef" stroke-width="1.51"/><path d="M538,289L502,294L565,339Z" fill="#c4c5e0" stroke="#c4c5e0" stroke-width="1.51"/><path d="M421,946L447,1107L553,1060Z" fill="#9985c0" stroke="#9985c0" stroke-width="1.51"/><path d="M447,1107L345,1273L520,1272Z" fill="#9377b8" stroke="#9377b8" stroke-width="1.51"/><path d="M441,-64L239,132L502,142Z" fill="#dbdbeb" stroke="#dbdbeb" stroke-width="1.51"/><path d="M267,248L502,294L502,142Z" fill="#cfd0e6" stroke="#cfd0e6" stroke-width="1.51"/><path d="M345,1273L428,1355L520,1272Z" fill="#9071b5" stroke="#9071b5" stroke-width="1.51"/><path d="M331,434L456,444L502,294Z" fill="#c3c3df" stroke="#c3c3df" stroke-width="1.51"/><path d="M456,444L274,536L509,577Z" fill="#bbb9d9" stroke="#bbb9d9" stroke-width="1.51"/><path d="M274,536L370,685L509,577Z" fill="#b6b4d7" stroke="#b6b4d7" stroke-width="1.51"/><path d="M267,248L331,434L502,294Z" fill="#cbcbe4" stroke="#cbcbe4" stroke-width="1.51"/><path d="M239,132L267,248L502,142Z" fill="#d8d7ea" stroke="#d8d7ea" stroke-width="1.51"/><path d="M274,536L284,628L370,685Z" fill="#b8b5d8" stroke="#b8b5d8" stroke-width="1.51"/><path d="M323,767L421,946L423,780Z" fill="#a79fce" stroke="#a79fce" stroke-width="1.51"/><path d="M345,1273L197,1244L428,1355Z" fill="#9576b7" stroke="#9576b7" stroke-width="1.51"/><path d="M203,-17L239,132L441,-64Z" fill="#e2e1ef" stroke="#e2e1ef" stroke-width="1.51"/><path d="M233,1190L345,1273L447,1107Z" fill="#987dbc" stroke="#987dbc" stroke-width="1.51"/><path d="M421,946L298,978L447,1107Z" fill="#9f8cc3" stroke="#9f8cc3" stroke-width="1.51"/><path d="M331,434L274,536L456,444Z" fill="#c1c0dd" stroke="#c1c0dd" stroke-width="1.51"/><path d="M225,-81L203,-17L441,-64Z" fill="#e5e4f0" stroke="#e5e4f0" stroke-width="1.51"/><path d="M298,978L233,1190L447,1107Z" fill="#9e86c1" stroke="#9e86c1" stroke-width="1.51"/><path d="M323,767L298,978L421,946Z" fill="#a69aca" stroke="#a69aca" stroke-width="1.51"/><path d="M424,-160L225,-81L441,-64Z" fill="#e5e4f0" stroke="#e5e4f0" stroke-width="1.51"/><path d="M370,685L323,767L423,780Z" fill="#adaad2" stroke="#adaad2" stroke-width="1.51"/><path d="M237,-225L225,-81L424,-160Z" fill="#e9e8f2" stroke="#e9e8f2" stroke-width="1.51"/><path d="M158,1064L233,1190L298,978Z" fill="#a28ac3" stroke="#a28ac3" stroke-width="1.51"/><path d="M195,763L298,978L323,767Z" fill="#aca3cf" stroke="#aca3cf" stroke-width="1.51"/><path d="M284,628L323,767L370,685Z" fill="#b2afd5" stroke="#b2afd5" stroke-width="1.51"/><path d="M158,1064L155,1112L233,1190Z" fill="#a187c2" stroke="#a187c2" stroke-width="1.51"/><path d="M195,763L137,807L298,978Z" fill="#ada3cf" stroke="#ada3cf" stroke-width="1.51"/><path d="M284,628L195,763L323,767Z" fill="#b2afd5" stroke="#b2afd5" stroke-width="1.51"/><path d="M267,248L144,375L331,434Z" fill="#cdcde4" stroke="#cdcde4" stroke-width="1.51"/><path d="M233,1190L197,1244L345,1273Z" fill="#997cbb" stroke="#997cbb" stroke-width="1.51"/><path d="M144,375L274,536L331,434Z" fill="#c6c5e0" stroke="#c6c5e0" stroke-width="1.51"/><path d="M164,240L144,375L267,248Z" fill="#d4d4e8" stroke="#d4d4e8" stroke-width="1.51"/><path d="M144,375L138,522L274,536Z" fill="#c6c4df" stroke="#c6c4df" stroke-width="1.51"/><path d="M137,807L158,1064L298,978Z" fill="#a898ca" stroke="#a898ca" stroke-width="1.51"/><path d="M239,132L164,240L267,248Z" fill="#d9d9ea" stroke="#d9d9ea" stroke-width="1.51"/><path d="M274,536L138,522L284,628Z" fill="#bfbcdb" stroke="#bfbcdb" stroke-width="1.51"/><path d="M138,522L195,763L284,628Z" fill="#bab7d8" stroke="#bab7d8" stroke-width="1.51"/><path d="M203,-17L117,26L239,132Z" fill="#e4e3f0" stroke="#e4e3f0" stroke-width="1.51"/><path d="M137,807L-4,954L158,1064Z" fill="#ac9ccc" stroke="#ac9ccc" stroke-width="1.51"/><path d="M138,522L-10,660L195,763Z" fill="#bdb9da" stroke="#bdb9da" stroke-width="1.51"/><path d="M97,-283L225,-81L237,-225Z" fill="#eeedf5" stroke="#eeedf5" stroke-width="1.51"/><path d="M117,26L164,240L239,132Z" fill="#e0dfee" stroke="#e0dfee" stroke-width="1.51"/><path d="M97,-283L-56,-95L225,-81Z" fill="#f0eef6" stroke="#f0eef6" stroke-width="1.51"/><path d="M155,1112L197,1244L233,1190Z" fill="#9e82bf" stroke="#9e82bf" stroke-width="1.51"/><path d="M117,26L203,-17L225,-81Z" fill="#e8e6f2" stroke="#e8e6f2" stroke-width="1.51"/><path d="M-56,-95L117,26L225,-81Z" fill="#edeaf4" stroke="#edeaf4" stroke-width="1.51"/><path d="M117,26L41,37L164,240Z" fill="#e4e3f0" stroke="#e4e3f0" stroke-width="1.51"/><path d="M-10,660L137,807L195,763Z" fill="#b6b2d7" stroke="#b6b2d7" stroke-width="1.51"/><path d="M155,1112L-46,1263L197,1244Z" fill="#a082bf" stroke="#a082bf" stroke-width="1.51"/><path d="M-37,-264L-56,-95L97,-283Z" fill="#f5f3f9" stroke="#f5f3f9" stroke-width="1.51"/><path d="M-56,-95L41,37L117,26Z" fill="#eceaf4" stroke="#eceaf4" stroke-width="1.51"/><path d="M42,499L-10,660L138,522Z" fill="#c5c1de" stroke="#c5c1de" stroke-width="1.51"/><path d="M42,499L138,522L144,375Z" fill="#cac8e1" stroke="#cac8e1" stroke-width="1.51"/><path d="M-84,1143L-46,1263L155,1112Z" fill="#a487c2" stroke="#a487c2" stroke-width="1.51"/><path d="M41,37L8,286L164,240Z" fill="#dfdeee" stroke="#dfdeee" stroke-width="1.51"/><path d="M8,286L144,375L164,240Z" fill="#d6d6e8" stroke="#d6d6e8" stroke-width="1.51"/><path d="M-92,1098L155,1112L158,1064Z" fill="#a78dc6" stroke="#a78dc6" stroke-width="1.51"/><path d="M-4,954L-92,1098L158,1064Z" fill="#aa94c9" stroke="#aa94c9" stroke-width="1.51"/><path d="M-92,1098L-84,1143L155,1112Z" fill="#a78dc5" stroke="#a78dc5" stroke-width="1.51"/><path d="M-42,377L42,499L144,375Z" fill="#d0cee4" stroke="#d0cee4" stroke-width="1.51"/><path d="M8,286L-42,377L144,375Z" fill="#d5d4e8" stroke="#d5d4e8" stroke-width="1.51"/><path d="M-86,805L-4,954L137,807Z" fill="#b3a8d2" stroke="#b3a8d2" stroke-width="1.51"/><path d="M-10,660L-86,805L137,807Z" fill="#b8b3d8" stroke="#b8b3d8" stroke-width="1.51"/><path d="M-147,134L8,286L41,37Z" fill="#e4e3f0" stroke="#e4e3f0" stroke-width="1.51"/><path d="M-56,-95L-174,13L41,37Z" fill="#eeedf5" stroke="#eeedf5" stroke-width="1.51"/><path d="M-174,13L-147,134L41,37Z" fill="#ebeaf3" stroke="#ebeaf3" stroke-width="1.51"/><path d="M-141,517L-10,660L42,499Z" fill="#c7c3df" stroke="#c7c3df" stroke-width="1.51"/><path d="M-42,377L-141,517L42,499Z" fill="#cecce3" stroke="#cecce3" stroke-width="1.51"/><path d="M-161,-166L-56,-95L-37,-264Z" fill="#f5f4f9" stroke="#f5f4f9" stroke-width="1.51"/><path d="M-151,1049L-92,1098L-4,954Z" fill="#ad97ca" stroke="#ad97ca" stroke-width="1.51"/><path d="M-86,805L-155,886L-4,954Z" fill="#b4a7d2" stroke="#b4a7d2" stroke-width="1.51"/><path d="M-203,338L-42,377L8,286Z" fill="#d8d8ea" stroke="#d8d8ea" stroke-width="1.51"/><path d="M-147,134L-203,338L8,286Z" fill="#dfdeee" stroke="#dfdeee" stroke-width="1.51"/><path d="M-219,717L-86,805L-10,660Z" fill="#bdb9da" stroke="#bdb9da" stroke-width="1.51"/><path d="M-155,886L-151,1049L-4,954Z" fill="#b09fce" stroke="#b09fce" stroke-width="1.51"/><path d="M-240,227L-203,338L-147,134Z" fill="#e2e2ef" stroke="#e2e2ef" stroke-width="1.51"/><path d="M-141,517L-219,717L-10,660Z" fill="#c4c0de" stroke="#c4c0de" stroke-width="1.51"/><path d="M-203,338L-141,517L-42,377Z" fill="#d4d2e7" stroke="#d4d2e7" stroke-width="1.51"/><path d="M-84,1143L-211,1364L-46,1263Z" fill="#a384c0" stroke="#a384c0" stroke-width="1.51"/><path d="M-161,-166L-174,13L-56,-95Z" fill="#f3f1f7" stroke="#f3f1f7" stroke-width="1.51"/><path d="M-92,1098L-151,1049L-84,1143Z" fill="#aa91c7" stroke="#aa91c7" stroke-width="1.51"/><path d="M-151,1049L-211,1364L-84,1143Z" fill="#a78ac4" stroke="#a78ac4" stroke-width="1.51"/><path d="M-219,717L-155,886L-86,805Z" fill="#b9b2d7" stroke="#b9b2d7" stroke-width="1.51"/><path d="M-203,338L-219,717L-141,517Z" fill="#cdcae3" stroke="#cdcae3" stroke-width="1.51"/><path d="M-155,886L-219,717L-151,1049Z" fill="#b6a9d3" stroke="#b6a9d3" stroke-width="1.51"/><path d="M-174,13L-240,227L-147,134Z" fill="#eae9f3" stroke="#eae9f3" stroke-width="1.51"/><path d="M-219,717L-211,1364L-151,1049Z" fill="#af98cb" stroke="#af98cb" stroke-width="1.51"/><path d="M-240,227L-174,13L-161,-166Z" fill="#efeef6" stroke="#efeef6" stroke-width="1.51"/><path d="M-240,227L-219,717L-203,338Z" fill="#d4d3e7" stroke="#d4d3e7" stroke-width="1.51"/><path d="M-219,717L-240,227L-211,1364Z" fill="#bcb7da" stroke="#bcb7da" stroke-width="1.51"/></svg>