<?xml version="1.0" encoding="UTF-8"?>
<!DOCTYPE svg PUBLIC "-//W3C//DTD SVG 1.1//EN" "http://www.w3.org/Graphics/SVG/1.1/DTD/svg11.dtd">
<!-- Creator: CorelDRAW -->
<svg xmlns="http://www.w3.org/2000/svg" xml:space="preserve" width="402px" height="113px" style="shape-rendering:geometricPrecision; text-rendering:geometricPrecision; image-rendering:optimizeQuality; fill-rule:evenodd; clip-rule:evenodd"
viewBox="0 0 134.849 37.8819"
 xmlns:xlink="http://www.w3.org/1999/xlink">
 <defs>
  <style type="text/css">
   <![CDATA[
    .fil0 {fill:#FFEB3B}
    .fil1 {fill:#FFEB3B;fill-rule:nonzero}
   ]]>
  </style>
 </defs>
 <g id="Camada_x0020_1">
  <metadata id="CorelCorpID_0Corel-Layer"/>
  <path class="fil0" d="M36.7067 12.2199l0 -10.0135c0,-0.918382 -0.748018,-1.666 -1.67036,-1.666l-10.0095 -0.000396196c-0.923928,0 -1.67036,0.748018 -1.67036,1.6664l0 4.17154c-8.14935,0 -14.9984,5.60221 -16.9425,13.1517l-1.73494 -0.304278c-0.312202,-0.0538826 -0.629555,0.0721076 -0.816163,0.324088 -0.186212,0.254754 -0.217511,0.594294 -0.0760696,0.876385l1.80705 3.56893c-3.16481,0.515451 -5.59349,3.26426 -5.59349,6.57843 0,3.67947 2.99286,6.67352 6.67312,6.67352 3.39698,0 6.20363,-2.55586 6.61568,-5.8427l5.89896 0 0 1.67036c0,0.316164 0.179477,0.602218 0.461568,0.748018 0.282091,0.136688 0.618065,0.110142 0.872819,-0.0804277l2.91798 -2.18859c0.476227,3.21473 3.24445,5.69333 6.58913,5.69333 3.67947,0 6.67748,-2.99405 6.67748,-6.67352 0,-3.39777 -2.55586,-6.20443 -5.8427,-6.61647l0 -5.89935 1.67036 0c0.316164,0 0.601821,-0.178288 0.743659,-0.460379 0.140649,-0.282091 0.114501,-0.622027 -0.0760696,-0.873612l-2.12836 -2.83716 3.96275 0c0.922344,0 1.67036,-0.747621 1.67036,-1.6664l-0.000396196 0zm-30.0332 21.6862c-1.83835,0 -3.33676,-1.49564 -3.33676,-3.3328 0,-1.84191 1.49841,-3.34033 3.33676,-3.34033 1.84191,0 3.33676,1.49841 3.33676,3.34033 0,1.83716 -1.49485,3.3328 -3.33676,3.3328zm26.6969 -3.3328c0,1.83716 -1.4996,3.3328 -3.33676,3.3328 -1.84191,0 -3.33676,-1.49564 -3.33676,-3.3328 0,-1.84191 1.49485,-3.34033 3.33676,-3.34033 1.83716,0 3.33676,1.49841 3.33676,3.34033zm-6.58557 -12.9762c0.140649,0.282091 0.426703,0.460776 0.742867,0.460776l1.67036 -0.000396196 0 5.89935c-2.96275,0.370047 -5.32329,2.68858 -5.75752,5.63271l-2.91759 -2.18859c-0.25515,-0.191363 -0.591124,-0.217908 -0.873215,-0.0800315 -0.282091,0.144611 -0.461568,0.430269 -0.461568,0.746433l0 1.67036 -5.89896 0c-0.376782,-3.01624 -2.77535,-5.41085 -5.79199,-5.78485 0,-0.018225 0.0106973,-0.0340728 0.0106973,-0.056656l0 -0.00752772 2.52456 -2.3645c0.229397,-0.213946 0.320126,-0.5416 0.229397,-0.846274 -0.0919174,-0.301505 -0.343502,-0.526148 -0.6561,-0.583993l-1.54794 -0.270205c1.80665,-6.76861 7.97344,-11.7757 15.3027,-11.7757l0 4.17194c0,0.918778 0.742867,1.6664 1.6664,1.6664l3.96116 0 -2.12717 2.83716c-0.191363,0.251584 -0.217511,0.59152 -0.0760696,0.873612zm6.58557 -7.04713l-6.67709 0 0 -6.67312 6.67709 0 0 6.67312z"/>
  <path class="fil1" d="M46.3561 8.04079l0 -7.33477 2.21909 0c0.840727,0 1.38946,0.0376386 1.64461,0.110935 0.39263,0.10935 0.722661,0.348652 0.987716,0.71751 0.264659,0.368858 0.396988,0.845085 0.396988,1.42749 0,0.450871 -0.0764658,0.83003 -0.229794,1.1355 -0.152932,0.307448 -0.345879,0.548335 -0.582012,0.724246 -0.234548,0.174326 -0.47385,0.290411 -0.716322,0.346671 -0.330427,0.0701266 -0.809032,0.105784 -1.43581,0.105784l-0.901345 0 0 2.76663 -1.38312 0zm1.38312 -6.09309l0 2.08003 0.755941 0c0.545562,0 0.91125,-0.0376386 1.09469,-0.114501 0.183439,-0.076862 0.326861,-0.196513 0.43225,-0.360538 0.103803,-0.163629 0.156101,-0.353407 0.156101,-0.570126 0,-0.26664 -0.0732962,-0.486925 -0.219889,-0.660854 -0.145404,-0.172741 -0.332012,-0.282091 -0.555466,-0.324484 -0.16561,-0.034469 -0.497622,-0.0495245 -0.995244,-0.0495245l-0.668382 0zm5.03802 6.09309l0 -7.27495 1.38312 0 0 6.03882 3.43977 0 0 1.23613 -4.82289 0zm11.9889 0l-1.50594 0 -0.598256 -1.6668 -2.7393 0 -0.564579 1.6668 -1.46791 0 2.66917 -7.33477 1.46275 0 2.74405 7.33477zm-2.54754 -2.90134l-0.944531 -2.72226 -0.925117 2.72226 1.86965 0zm3.29437 2.90134l0 -7.33477 1.34627 0 2.80467 4.89777 0 -4.89777 1.28605 0 0 7.33477 -1.38946 0 -2.76188 -4.78327 0 4.78327 -1.28566 0zm6.89975 0l0 -7.33477 5.07963 0 0 1.24168 -3.69651 0 0 1.62559 3.43977 0 0 1.23494 -3.43977 0 0 1.99643 3.82725 0 0 1.23613 -5.21037 0zm8.85577 -7.33477l1.37995 0 0 4.64341c0,0.606179 -0.0507131,1.07409 -0.149762,1.40055 -0.133914,0.426703 -0.376386,0.770205 -0.729,1.02773 -0.352614,0.259904 -0.816956,0.387876 -1.39302,0.387876 -0.676306,0 -1.19651,-0.201664 -1.5618,-0.60816 -0.363708,-0.404516 -0.548731,-0.998809 -0.550316,-1.78288l1.30348 -0.160459c0.0158478,0.419967 0.0732962,0.71751 0.172345,0.89144 0.149762,0.263074 0.377971,0.394611 0.682645,0.394611 0.307844,0 0.526544,-0.0938984 0.654119,-0.283676 0.127575,-0.187797 0.191363,-0.578842 0.191363,-1.17314l0 -4.73731zm9.03128 7.33477l-1.50594 0 -0.598256 -1.6668 -2.7393 0 -0.564579 1.6668 -1.46791 0 2.66917 -7.33477 1.46275 0 2.74405 7.33477zm-2.54754 -2.90134l-0.944531 -2.72226 -0.925513 2.72226 1.87004 0zm3.26228 2.90134l0 -7.33477 2.07092 0 1.24287 5.00395 1.22821 -5.00395 2.07567 0 0 7.33477 -1.28407 0 0 -5.77376 -1.36093 5.77376 -1.33241 0 -1.35578 -5.77376 0 5.77376 -1.28447 0zm7.99285 0l0 -7.33477 5.07963 0 0 1.24168 -3.69651 0 0 1.62559 3.43977 0 0 1.23494 -3.43977 0 0 1.99643 3.82725 0 0 1.23613 -5.21037 0zm6.39737 0l0 -7.33477 1.34627 0 2.80467 4.89777 0 -4.89777 1.28605 0 0 7.33477 -1.38946 0 -2.76188 -4.78327 0 4.78327 -1.28566 0zm8.44095 0l0 -6.09309 -2.03248 0 0 -1.24168 5.44492 0 0 1.24168 -2.02773 0 0 6.09309 -1.3847 0zm3.85261 -3.62202c0,-0.748018 0.103803,-1.3748 0.312995,-1.88193 0.156101,-0.372424 0.368462,-0.708794 0.637875,-1.00594 0.269809,-0.295562 0.564975,-0.515847 0.885497,-0.65927 0.427495,-0.194532 0.919174,-0.290411 1.47741,-0.290411 1.0099,0 1.81695,0.334785 2.42313,1.00594 0.606576,0.669571 0.909665,1.60182 0.909665,2.79556 0,1.18542 -0.301505,2.11093 -0.903326,2.7805 -0.601425,0.66759 -1.40531,1.00238 -2.41045,1.00238 -1.01941,0 -1.82963,-0.333201 -2.43145,-0.997225 -0.601425,-0.666401 -0.901345,-1.5832 -0.901345,-2.7496zm1.42472 -0.0495245c0,0.83003 0.180269,1.45998 0.537638,1.88867 0.358953,0.428684 0.813786,0.642233 1.36569,0.642233 0.550316,0 1.00356,-0.211965 1.35776,-0.638668 0.352614,-0.425514 0.529714,-1.0622 0.529714,-1.91283 0,-0.840331 -0.172345,-1.46711 -0.515451,-1.88193 -0.34469,-0.413232 -0.802296,-0.620046 -1.37203,-0.620046 -0.570918,0 -1.03051,0.21038 -1.37995,0.628763 -0.34786,0.418383 -0.523375,1.04833 -0.523375,1.89382z"/>
  <polygon class="fil1" points="128.075,8.16559 128.075,3.22503 131.737,3.22503 131.737,4.0614 129.072,4.0614 129.072,5.15649 131.552,5.15649 131.552,5.9881 129.072,5.9881 129.072,7.33279 131.832,7.33279 131.832,8.16559 "/>
  <path class="fil1" d="M51.1322 15.9473l1.37203 0.465134c-0.210776,0.820125 -0.560221,1.42868 -1.05031,1.82725 -0.488509,0.396988 -1.11093,0.596275 -1.8637,0.596275 -0.93106,0 -1.69691,-0.341125 -2.29635,-1.02139 -0.599444,-0.681853 -0.900157,-1.61371 -0.900157,-2.79397 0,-1.25 0.302297,-2.22028 0.904911,-2.91283 0.602614,-0.690569 1.39501,-1.03684 2.37797,-1.03684 0.857764,0 1.55507,0.270998 2.09072,0.814975 0.320126,0.31973 0.558636,0.781298 0.718699,1.38272l-1.40293 0.358557c-0.0816163,-0.389857 -0.254754,-0.697701 -0.519413,-0.923136 -0.263074,-0.225435 -0.5832,-0.337559 -0.958794,-0.337559 -0.519413,0 -0.94255,0.199286 -1.26585,0.59984 -0.323296,0.398573 -0.484944,1.04556 -0.484944,1.94057 0,0.949681 0.158478,1.62638 0.478604,2.02852 0.318541,0.403723 0.733358,0.604595 1.24287,0.604595 0.377178,0 0.700474,-0.127575 0.971868,-0.38431 0.270998,-0.255546 0.46553,-0.65927 0.584785,-1.2084zm2.3011 -0.9477c0,-0.765846 0.10618,-1.40729 0.320126,-1.9267 0.160459,-0.38114 0.377575,-0.725434 0.653327,-1.02971 0.276148,-0.302694 0.578446,-0.528129 0.906892,-0.675118 0.4374,-0.199286 0.940569,-0.297147 1.51228,-0.297147 1.03407,0 1.86054,0.342709 2.48098,1.03011 0.620839,0.685022 0.93106,1.63985 0.93106,2.86212 0,1.21315 -0.308636,2.16085 -0.924325,2.84627 -0.616084,0.683834 -1.43898,1.02654 -2.4679,1.02654 -1.04398,0 -1.87361,-0.341125 -2.4893,-1.02139 -0.616084,-0.681853 -0.923136,-1.62044 -0.923136,-2.81497zm1.45879 -0.0507131c0,0.84984 0.184627,1.49524 0.550316,1.93383 0.36767,0.438985 0.8332,0.657289 1.39817,0.657289 0.56339,0 1.02734,-0.216719 1.38985,-0.653723 0.361331,-0.435419 0.542392,-1.08756 0.542392,-1.9584 0,-0.860141 -0.176307,-1.50158 -0.527337,-1.9267 -0.35301,-0.423137 -0.82171,-0.634706 -1.40491,-0.634706 -0.584785,0 -1.05507,0.215134 -1.41283,0.643422 -0.35618,0.428684 -0.535657,1.07369 -0.535657,1.93898zm6.46473 3.75911l0 -7.50949 1.37876 0 2.87123 5.01465 0 -5.01465 1.31656 0 0 7.50949 -1.42274 0 -2.82725 -4.89738 0 4.89738 -1.31656 0zm8.64222 0l0 -6.2381 -2.08122 0 0 -1.27139 5.57487 0 0 1.27139 -2.07607 0 0 6.2381 -1.41759 0zm4.41164 0l0 -7.50949 2.98256 0c0.749602,0 1.29358,0.0681457 1.63312,0.202852 0.339936,0.134707 0.612519,0.374405 0.816559,0.718699 0.204437,0.346275 0.305467,0.739697 0.305467,1.18383 0,0.562994 -0.154913,1.02971 -0.463549,1.39699 -0.309033,0.365292 -0.772582,0.597859 -1.38867,0.692154 0.307052,0.192551 0.560221,0.402139 0.759507,0.63114 0.199286,0.229397 0.467115,0.634706 0.805466,1.2187l0.857368 1.46513 -1.69374 0 -1.02417 -1.6347c-0.364104,-0.583993 -0.612519,-0.95087 -0.746433,-1.10301 -0.133914,-0.152139 -0.276148,-0.255546 -0.426307,-0.312995 -0.150158,-0.0562598 -0.387083,-0.0839935 -0.713549,-0.0839935l-0.286053 0 0 3.1347 -1.41759 0zm1.41759 -4.33438l1.04715 0c0.679476,0 1.1042,-0.0297147 1.27377,-0.0907288 0.168383,-0.0610141 0.300713,-0.167987 0.396988,-0.318145 0.0946908,-0.150554 0.143819,-0.337559 0.143819,-0.562994 0,-0.253565 -0.0637875,-0.456417 -0.189382,-0.612122 -0.12599,-0.155309 -0.303882,-0.253565 -0.534072,-0.295562 -0.114501,-0.0154516 -0.459191,-0.0241679 -1.03407,-0.0241679l-1.1042 0 0 1.90372zm5.36885 0.625989c0,-0.765846 0.10618,-1.40729 0.320126,-1.9267 0.160063,-0.38114 0.377178,-0.725434 0.653327,-1.02971 0.276148,-0.302694 0.578446,-0.528129 0.906496,-0.675118 0.437796,-0.199286 0.940965,-0.297147 1.51268,-0.297147 1.03367,0 1.86014,0.342709 2.48098,1.03011 0.620443,0.685022 0.93106,1.63985 0.93106,2.86212 0,1.21315 -0.308636,2.16085 -0.924721,2.84627 -0.615688,0.683834 -1.43898,1.02654 -2.4679,1.02654 -1.04358,0 -1.87361,-0.341125 -2.4893,-1.02139 -0.615688,-0.681853 -0.92274,-1.62044 -0.92274,-2.81497zm1.4584 -0.0507131c0,0.84984 0.184627,1.49524 0.550712,1.93383 0.367273,0.438985 0.832803,0.657289 1.39817,0.657289 0.56339,0 1.02734,-0.216719 1.38985,-0.653723 0.360934,-0.435419 0.542392,-1.08756 0.542392,-1.9584 0,-0.860141 -0.176307,-1.50158 -0.527733,-1.9267 -0.352614,-0.423137 -0.82171,-0.634706 -1.40451,-0.634706 -0.584785,0 -1.05547,0.215134 -1.41283,0.643422 -0.35618,0.428684 -0.536053,1.07369 -0.536053,1.93898zm6.48929 3.75911l0 -7.44808 1.4164 0 0 6.18224 3.52139 0 0 1.26585 -4.93779 0zm5.94888 0l0 -7.50949 5.20047 0 0 1.27139 -3.78446 0 0 1.66442 3.52139 0 0 1.26426 -3.52139 0 0 2.04358 3.91838 0 0 1.26585 -5.33438 0z"/>
  <path class="fil1" d="M105.068 13.7179l1.82329 0c0.410459,0 0.723453,0.0312995 0.939776,0.0942946 0.289619,0.0851821 0.53843,0.236925 0.744056,0.455625 0.20721,0.217511 0.364896,0.484151 0.472662,0.799523 0.106973,0.316164 0.161252,0.705228 0.161252,1.16878 0,0.405704 -0.0507131,0.756734 -0.151743,1.05111 -0.123217,0.358953 -0.299128,0.650157 -0.529317,0.872027 -0.172345,0.169176 -0.406101,0.300316 -0.700474,0.394611 -0.219492,0.0701266 -0.514262,0.104596 -0.883516,0.104596l-1.87599 0 0 -4.94056zm0.997225 0.836369l0 3.27139 0.744452 0c0.278129,0 0.479397,-0.0150554 0.603802,-0.0471473 0.160855,-0.040412 0.295562,-0.108161 0.402535,-0.204833 0.106973,-0.0966718 0.193344,-0.256339 0.261093,-0.477416 0.0669571,-0.220681 0.101426,-0.523375 0.101426,-0.905307 0,-0.381933 -0.034469,-0.673929 -0.101426,-0.878762 -0.0677495,-0.204833 -0.162044,-0.3645 -0.282884,-0.478604 -0.122028,-0.114897 -0.276148,-0.191759 -0.46236,-0.232171 -0.139461,-0.0320919 -0.412044,-0.0471473 -0.818937,-0.0471473l-0.447701 0zm8.44531 4.10419l-1.08558 0 -0.431457 -1.12282 -1.97504 0 -0.407289 1.12282 -1.05824 0 1.92432 -4.94056 1.05507 0 1.97821 4.94056zm-1.83676 -1.95443l-0.68106 -1.83359 -0.667194 1.83359 1.34825 0z"/>
  <path class="fil1" d="M46.4108 34.3791l0 -12.2512 3.58399 0c1.35776,0 2.24445,0.0625989 2.65649,0.18542 0.633913,0.18225 1.16719,0.581615 1.59508,1.1981 0.427495,0.616084 0.641441,1.41165 0.641441,2.38431 0,0.753168 -0.123613,1.38629 -0.370839,1.89699 -0.247622,0.51347 -0.559428,0.915608 -0.940569,1.20959 -0.378763,0.290808 -0.76545,0.484944 -1.15689,0.578842 -0.533279,0.116878 -1.30626,0.177099 -2.31893,0.177099l-1.45602 0 0 4.62083 -2.23375 0zm2.23375 -10.1775l0 3.47424 1.22147 0c0.881139,0 1.47107,-0.0625989 1.76743,-0.190966 0.296354,-0.128367 0.528525,-0.32805 0.698493,-0.602218 0.167195,-0.273771 0.252377,-0.590332 0.252377,-0.952455 0,-0.444928 -0.118463,-0.812994 -0.355388,-1.1038 -0.234548,-0.28843 -0.536053,-0.470681 -0.896987,-0.541996 -0.267828,-0.0570522 -0.803881,-0.0828049 -1.60776,-0.0828049l-1.07963 0zm8.08279 10.1775l0 -12.2512 4.70482 0c1.18264,0 2.0408,0.111331 2.57686,0.330823 0.535657,0.219492 0.965925,0.610538 1.28803,1.17234 0.322107,0.564579 0.481774,1.20642 0.481774,1.93106 0,0.918382 -0.244453,1.68027 -0.731774,2.27892 -0.486925,0.596275 -1.2187,0.97583 -2.18977,1.12955 0.484151,0.313787 0.883516,0.6561 1.1981,1.03011 0.314183,0.373613 0.736924,1.03526 1.2702,1.98811l1.35261 2.39025 -2.67194 0 -1.61529 -2.66719c-0.57488,-0.952455 -0.966321,-1.5515 -1.17749,-1.79992 -0.211569,-0.248019 -0.435815,-0.416402 -0.67274,-0.5103 -0.236925,-0.0915212 -0.610538,-0.137084 -1.12599,-0.137084l-0.450871 0 0 5.11449 -2.23652 0zm2.23652 -7.0713l1.65174 0c1.07171,0 1.74168,-0.0483359 2.0095,-0.148177 0.265451,-0.0998413 0.474246,-0.273771 0.626385,-0.519413 0.149366,-0.245245 0.226624,-0.550316 0.226624,-0.918382 0,-0.413628 -0.100634,-0.744452 -0.299128,-0.998413 -0.198098,-0.253565 -0.479001,-0.413628 -0.842312,-0.481774 -0.180269,-0.0257527 -0.72385,-0.0400158 -1.63114,-0.0400158l-1.74168 0 0 3.10617zm8.46948 1.02139c0,-1.2496 0.167195,-2.29635 0.504753,-3.14342 0.252377,-0.622027 0.595086,-1.18383 1.03051,-1.68027 0.435815,-0.493264 0.912439,-0.86133 1.43027,-1.10103 0.690569,-0.325277 1.48415,-0.484944 2.38589,-0.484944 1.63114,0 2.93462,0.559032 3.91362,1.68027 0.979396,1.11806 1.4687,2.67551 1.4687,4.66917 0,1.97979 -0.486925,3.52575 -1.4584,4.64381 -0.971076,1.11529 -2.26981,1.67432 -3.89302,1.67432 -1.64659,0 -2.95522,-0.555863 -3.9267,-1.66561 -0.971472,-1.11252 -1.45562,-2.64421 -1.45562,-4.5923zm2.30071 -0.0828049c0,1.38629 0.291204,2.43858 0.868461,3.15451 0.579634,0.716322 1.31379,1.0729 2.20562,1.0729 0.888667,0 1.62044,-0.353803 2.19255,-1.06696 0.569333,-0.710379 0.855387,-1.77416 0.855387,-3.19492 0,-1.40333 -0.278129,-2.45007 -0.832407,-3.14302 -0.556259,-0.690569 -1.29596,-1.03566 -2.21553,-1.03566 -0.92274,0 -1.66481,0.351029 -2.229,1.04952 -0.561806,0.698889 -0.845085,1.75158 -0.845085,3.16362zm10.1696 -6.11845l4.08399 0c0.919966,0 1.62084,0.076862 2.10499,0.233755 0.649365,0.211172 1.20602,0.587558 1.66719,1.12955 0.463945,0.539222 0.816956,1.20087 1.05903,1.98256 0.239698,0.784468 0.360538,1.74841 0.360538,2.89817 0,1.00673 -0.113312,1.87678 -0.339936,2.60697 -0.275752,0.889856 -0.669967,1.61172 -1.18542,2.16204 -0.386291,0.419571 -0.909269,0.744452 -1.56894,0.978603 -0.492075,0.17393 -1.15174,0.259508 -1.979,0.259508l-4.20245 0 0 -12.2512zm2.23415 2.07369l0 8.11211 1.66719 0c0.623216,0 1.07409,-0.0368462 1.35261,-0.116878 0.360538,-0.0998413 0.662043,-0.268225 0.901741,-0.507527 0.239698,-0.239698 0.432646,-0.63629 0.584785,-1.18383 0.149366,-0.547543 0.226624,-1.29794 0.226624,-2.24485 0,-0.946908 -0.0772582,-1.67155 -0.226624,-2.17947 -0.152139,-0.507527 -0.363311,-0.904119 -0.633913,-1.18661 -0.272979,-0.285261 -0.618462,-0.476227 -1.03566,-0.576069 -0.311806,-0.0800315 -0.922344,-0.116878 -1.83439,-0.116878l-1.00238 0zm8.92272 -2.07369l2.23375 0 0 6.63469c0,1.05269 0.0285261,1.73692 0.0824087,2.04794 0.0954832,0.50198 0.324881,0.904119 0.683041,1.20681 0.360538,0.305071 0.852613,0.456417 1.47623,0.456417 0.633913,0 1.11331,-0.14263 1.43502,-0.431061 0.322107,-0.285261 0.515451,-0.638668 0.580031,-1.05507 0.0669571,-0.419571 0.0978603,-1.11252 0.0978603,-2.0824l0 -6.77732 2.23375 0 0 6.43501c0,1.47187 -0.0590332,2.5103 -0.180269,3.11766 -0.121236,0.607764 -0.342709,1.11806 -0.667194,1.53764 -0.324881,0.416402 -0.7603,0.749999 -1.3015,0.998017 -0.543581,0.248415 -1.25475,0.370839 -2.13074,0.370839 -1.05626,0 -1.85776,-0.133914 -2.40372,-0.404912 -0.546354,-0.270998 -0.976622,-0.621631 -1.29358,-1.05269 -0.316957,-0.430665 -0.525752,-0.883913 -0.625989,-1.35776 -0.146989,-0.701663 -0.219096,-1.73692 -0.219096,-3.10895l0 -6.53485zm18.2603 7.74721l2.16442 0.758715c-0.332408,1.33756 -0.883913,2.33042 -1.65689,2.98058 -0.770601,0.64778 -1.75198,0.972661 -2.93977,0.972661 -1.4687,0 -2.67709,-0.555863 -3.62281,-1.66561 -0.945719,-1.11252 -1.41957,-2.63272 -1.41957,-4.55823 0,-2.03962 0.476623,-3.62242 1.42749,-4.75197 0.950474,-1.12678 2.20007,-1.69176 3.75118,-1.69176 1.35301,0 2.45285,0.442154 3.29833,1.32924 0.504753,0.522186 0.881139,1.27496 1.13352,2.25633l-2.21315 0.584785c-0.12916,-0.63629 -0.402139,-1.13827 -0.819333,-1.50594 -0.414817,-0.368066 -0.919966,-0.550712 -1.51268,-0.550712 -0.819333,0 -1.48653,0.325277 -1.99683,0.978603 -0.5103,0.650157 -0.765054,1.70562 -0.765054,3.166 0,1.54873 0.25,2.65293 0.754753,3.30903 0.502376,0.658874 1.15689,0.986924 1.96077,0.986924 0.595086,0 1.10539,-0.208399 1.53328,-0.627574 0.427495,-0.416402 0.734151,-1.07567 0.922344,-1.97107zm-4.6973 7.87241l0 -0.986924c0.520601,0.0602218 0.994847,0.0915212 1.42749,0.0915212 0.448494,0 0.780902,-0.0883516 0.997225,-0.268225 0.164817,-0.131141 0.247226,-0.305071 0.247226,-0.516243 0,-0.190966 -0.0772582,-0.353803 -0.231775,-0.49366 -0.15729,-0.139461 -0.399365,-0.208003 -0.726623,-0.208003 -0.322107,0 -0.651742,0.0542788 -0.986924,0.165214l0.195721 -0.82686c0.391838,-0.148573 0.814182,-0.225435 1.26783,-0.225435 0.628763,0 1.10816,0.15412 1.43502,0.459191 0.327258,0.30824 0.489698,0.681853 0.489698,1.12084 0,0.490887 -0.180269,0.887082 -0.543581,1.19532 -0.486925,0.416402 -1.18779,0.627574 -2.09746,0.627574 -0.649365,0 -1.14144,-0.0455625 -1.47385,-0.13431zm18.7603 -3.36846l-2.43225 0 -0.966321 -2.78407 -4.42392 0 -0.912043 2.78407 -2.37044 0 4.31061 -12.2512 2.36252 0 4.43185 12.2512zm-4.11489 -4.84627l-1.52535 -4.54674 -1.49445 4.54674 3.0198 0zm-3.25435 -8.0812l-0.965925 0c-0.00515054,-0.128367 -0.00792391,-0.228209 -0.00792391,-0.302297 0,-0.584785 0.128764,-1.03526 0.383914,-1.34905 0.257527,-0.313787 0.587558,-0.470681 0.989301,-0.470681 0.175515,0 0.340332,0.0198098 0.492471,0.0625989 0.149366,0.0400158 0.425118,0.160063 0.824483,0.359746 0.401742,0.196513 0.713549,0.296354 0.940172,0.296354 0.16244,0 0.296354,-0.0570522 0.404516,-0.168383 0.108161,-0.110935 0.177892,-0.299128 0.206418,-0.559032l0.981377 0c-0.00515054,0.750395 -0.131141,1.28962 -0.38114,1.61172 -0.247226,0.322503 -0.569333,0.484944 -0.961171,0.484944 -0.172741,0 -0.339936,-0.0198098 -0.507527,-0.0598256 -0.113312,-0.0312995 -0.404516,-0.145404 -0.865688,-0.342313 -0.463945,-0.194136 -0.801504,-0.290808 -1.01268,-0.290808 -0.159667,0 -0.286053,0.0538826 -0.37599,0.16244 -0.093106,0.108558 -0.139461,0.296751 -0.144611,0.564579zm8.10101 6.87756c0,-1.2496 0.167195,-2.29635 0.504753,-3.14342 0.252773,-0.622027 0.595482,-1.18383 1.0309,-1.68027 0.435419,-0.493264 0.912043,-0.86133 1.42987,-1.10103 0.690569,-0.325277 1.48415,-0.484944 2.38589,-0.484944 1.63114,0 2.93462,0.559032 3.91402,1.68027 0.979,1.11806 1.4687,2.67551 1.4687,4.66917 0,1.97979 -0.487321,3.52575 -1.4584,4.64381 -0.971472,1.11529 -2.2702,1.67432 -3.89342,1.67432 -1.64619,0 -2.95522,-0.555863 -3.9267,-1.66561 -0.971472,-1.11252 -1.45562,-2.64421 -1.45562,-4.5923zm2.30071 -0.0828049c0,1.38629 0.291204,2.43858 0.868461,3.15451 0.579634,0.716322 1.31418,1.0729 2.20562,1.0729 0.888667,0 1.62044,-0.353803 2.19255,-1.06696 0.569333,-0.710379 0.855387,-1.77416 0.855387,-3.19492 0,-1.40333 -0.278129,-2.45007 -0.832011,-3.14302 -0.556655,-0.690569 -1.29635,-1.03566 -2.21592,-1.03566 -0.92274,0 -1.66442,0.351029 -2.229,1.04952 -0.561409,0.698889 -0.845085,1.75158 -0.845085,3.16362z"/>
  <polygon class="fil0" points="40.1124,0 41.49,0 41.49,37.4346 40.1124,37.4346 "/>
 </g>
</svg>
