<?xml version="1.0" encoding="UTF-8"?>
<svg width="47" height="47" xmlns="http://www.w3.org/2000/svg">
 <g>
  <title>Layer 1</title>
  <g id="svg_1">
   <g id="Layer_1_110_">
    <g id="svg_2">
     <path fill="#e1bee7" id="svg_3" d="m17.566999,15.938l-2.858999,-2.702c0.333,-0.605 0.539,-1.29 0.539,-2.029c0,-2.342 -1.896999,-4.239 -4.24,-4.239c-2.343,0 -4.243,1.896 -4.243,4.239c0,2.343 1.9,4.241 4.243,4.241c0.826,0 1.59,-0.246 2.242,-0.654l2.855,2.699c0.431999,-0.570999 0.919001,-1.094 1.462999,-1.555z"/>
     <path fill="#e1bee7" id="svg_4" d="m29.66,15.6l3.799,-6.393001c0.374001,0.107 0.762001,0.184 1.168999,0.184c2.347,0 4.244003,-1.898 4.244003,-4.241c0,-2.342 -1.897003,-4.239 -4.244003,-4.239c-2.342999,0 -4.238998,1.896 -4.238998,4.239c0,1.163 0.469,2.214 1.226999,2.980999l-3.786999,6.375c0.650999,0.295 1.264999,0.663 1.830999,1.094001z"/>
     <path fill="#e1bee7" id="svg_5" d="m42.762001,20.952c-1.824001,0 -3.368999,1.159 -3.968002,2.775l-5.278,-0.521c0,0.040001 0.006001,0.078001 0.006001,0.117001c0,0.688 -0.076,1.360001 -0.213001,2.009001l5.276001,0.521c0.319,2.024 2.062,3.576 4.177002,3.576c2.341999,0 4.237999,-1.896 4.237999,-4.238001c0,-2.341 -1.896,-4.239 -4.237999,-4.239z"/>
     <path fill="#e1bee7" id="svg_6" d="m28.197001,37.624001l-1.18,-5.156002c-0.666,0.232002 -1.358999,0.398003 -2.082001,0.481003l1.182001,5.156998c-1.355001,0.709 -2.290001,2.110001 -2.290001,3.746002c0,2.341999 1.896,4.237 4.243,4.237c2.342001,0 4.237999,-1.896 4.237999,-4.237c0.003002,-2.299 -1.828999,-4.16 -4.110998,-4.228001z"/>
     <path fill="#e1bee7" id="svg_7" d="m14.357,25.370001l-6.57,2.200998c-0.758,-1.157999 -2.063,-1.925999 -3.548,-1.925999c-2.343,0 -4.239,1.896999 -4.239,4.239c0,2.344999 1.896,4.241999 4.239,4.241999c2.341,0 4.242,-1.896999 4.242,-4.241999c0,-0.098001 -0.021,-0.188002 -0.029,-0.284l6.591001,-2.207001c-0.297,-0.640999 -0.533,-1.316 -0.686,-2.022999z"/>
     <circle fill="#e1bee7" id="svg_8" r="7.271" cy="23.323" cx="23.83"/>
    </g>
   </g>
  </g>
  <g id="svg_9"/>
  <g id="svg_10"/>
  <g id="svg_11"/>
  <g id="svg_12"/>
  <g id="svg_13"/>
  <g id="svg_14"/>
  <g id="svg_15"/>
  <g id="svg_16"/>
  <g id="svg_17"/>
  <g id="svg_18"/>
  <g id="svg_19"/>
  <g id="svg_20"/>
  <g id="svg_21"/>
  <g id="svg_22"/>
  <g id="svg_23"/>
 </g>
</svg>