<svg width="640" height="480.00000000000006" xmlns="http://www.w3.org/2000/svg" xmlns:svg="http://www.w3.org/2000/svg" xmlns:xlink="http://www.w3.org/1999/xlink">
 <!-- Created with SVG-edit - http://svg-edit.googlecode.com/ -->
 <defs>
  <symbol id="svg_2" xmlns="http://www.w3.org/2000/svg" xmlns:xlink="http://www.w3.org/1999/xlink" viewBox="0 0 380 380">
   <path id="svg_1" d="m190.001007,0c-104.768021,0 -190.000017,85.233002 -190.000017,190s85.230997,190 189.998979,190c104.766998,0 189.997986,-85.233002 189.997986,-190s-85.230988,-190 -189.996964,-190l0.000015,0zm0,64.224998c23.046997,0 44.662003,6.237 63.257996,17.103004l-171.929993,171.929993c-10.867012,-18.595001 -17.104012,-40.210999 -17.104012,-63.258011c0,-69.352982 56.424004,-125.774994 125.776009,-125.774994l0,0.000008zm0,251.549995c-23.048004,0 -44.662003,-6.237 -63.257996,-17.102997l171.929993,-171.929985c10.865997,18.596001 17.102997,40.211006 17.102997,63.258003c0,69.352982 -56.424011,125.774979 -125.774994,125.774979z"/>
   <g id="svg_4"/>
   <g id="svg_5"/>
   <g id="svg_6"/>
   <g id="svg_7"/>
   <g id="svg_8"/>
   <g id="svg_9"/>
   <g id="svg_10"/>
   <g id="svg_11"/>
   <g id="svg_12"/>
   <g id="svg_13"/>
   <g id="svg_14"/>
   <g id="svg_15"/>
   <g id="svg_16"/>
   <g id="svg_17"/>
   <g id="svg_18"/>
  </symbol>
 </defs>
 <g>
  <title>Layer 1</title>
  <use fill="#9e9e9e" id="svg_3" xlink:href="#svg_2" transform="matrix(0.998051, 0, 0, 0.998051, 0, 0)"/>
 </g>
</svg>