<?xml version="1.0" encoding="UTF-8"?>
<!DOCTYPE svg PUBLIC "-//W3C//DTD SVG 1.1//EN" "http://www.w3.org/Graphics/SVG/1.1/DTD/svg11.dtd">
<!-- Creator: CorelDRAW -->
<svg xmlns="http://www.w3.org/2000/svg" xml:space="preserve" width="118.437mm" height="37.6524mm" style="shape-rendering:geometricPrecision; text-rendering:geometricPrecision; image-rendering:optimizeQuality; fill-rule:evenodd; clip-rule:evenodd"
viewBox="0 0 107.53 34.1849"
 xmlns:xlink="http://www.w3.org/1999/xlink">
 <defs>
  <style type="text/css">
   <![CDATA[
    .fil0 {fill:#FFF212}
    .fil1 {fill:#FFF212;fill-rule:nonzero}
   ]]>
  </style>
 </defs>
 <g id="Camada_x0020_1">
  <metadata id="CorelCorpID_0Corel-Layer"/>
  <g id="_194541048">
   <path id="_196372376" class="fil0" d="M0.987532 0.574887l33.2114 0c0.54302,0 0.987441,0.569894 0.987441,1.26644l0 29.19c0,0.696638 -0.444421,1.26644 -0.987441,1.26644l-33.2114 0c-0.543111,0 -0.987532,-0.569894 -0.987532,-1.26644l0 -29.19c0,-0.696638 0.444421,-1.26644 0.987532,-1.26644zm0.679024 6.62809l31.8768 0 0 22.6577 -31.8768 0 0 -22.6577zm23.7654 -4.61762c0.529129,0 0.958025,0.550283 0.958025,1.22876 0,0.67857 -0.428896,1.22867 -0.958025,1.22867 -0.52922,0 -0.958115,-0.550101 -0.958115,-1.22867 0,-0.67848 0.428896,-1.22876 0.958115,-1.22876zm3.39667 0c0.528947,0 0.958115,0.550283 0.958115,1.22876 0,0.67857 -0.429168,1.22867 -0.958115,1.22867 -0.529129,0 -0.958025,-0.550101 -0.958025,-1.22867 0,-0.67848 0.428896,-1.22876 0.958025,-1.22876zm3.13537 0c0.52922,0 0.958115,0.550283 0.958115,1.22876 0,0.67857 -0.428896,1.22867 -0.958115,1.22867 -0.528947,0 -0.958025,-0.550101 -0.958025,-1.22867 0,-0.67848 0.429077,-1.22876 0.958025,-1.22876z"/>
   <path id="_192993952" class="fil0" d="M25.9289 20.0678c-0.806495,-0.107406 -1.41679,-0.792604 -1.41679,-1.6011 0,-0.809672 0.610296,-1.4975 1.41679,-1.59937 0.162516,-0.0219714 0.306147,-0.110311 0.39721,-0.243138 0.0883394,-0.135097 0.118936,-0.301244 0.080713,-0.45813 -0.221348,-0.864601 -0.563266,-1.69043 -1.01958,-2.45544 -0.0825288,-0.140635 -0.220349,-0.2376 -0.378144,-0.267924 -0.160518,-0.0305965 -0.323034,0.00853434 -0.453137,0.107406 -0.623551,0.483552 -1.57368,0.428442 -2.1315,-0.129195 -0.574978,-0.572164 -0.629997,-1.48933 -0.130376,-2.1324 0.0997791,-0.126562 0.138728,-0.292619 0.108404,-0.452683 -0.0305965,-0.157431 -0.127198,-0.295433 -0.268014,-0.378961 -0.764912,-0.455225 -1.59056,-0.797325 -2.45535,-1.01858 -0.0356808,-0.00880671 -0.0721787,-0.0143449 -0.108132,-0.0161608l-0.0631904 0c-0.101141,0.00535666 -0.200285,0.0374966 -0.28699,0.0959659 -0.132827,0.0941501 -0.221166,0.2376 -0.243047,0.398027 -0.105408,0.805859 -0.792604,1.41398 -1.5991,1.41398 -0.809037,0 -1.49687,-0.608117 -1.60228,-1.41398 -0.0188845,-0.160427 -0.107224,-0.306873 -0.242321,-0.398027 -0.0892474,-0.0591048 -0.193294,-0.092425 -0.300699,-0.0959659l-0.0414006 0c-0.03904,0.00136186 -0.0778985,0.00671852 -0.116848,0.0161608 -0.861877,0.221166 -1.6868,0.563539 -2.45271,1.01858 -0.13773,0.0835275 -0.234694,0.22153 -0.264292,0.381231 -0.0303241,0.157794 0.00780801,0.323851 0.107406,0.450413 0.496989,0.646067 0.441879,1.56324 -0.130012,2.13513 -0.555004,0.555004 -1.50804,0.610023 -2.13168,0.129377 -0.129922,-0.0988712 -0.292619,-0.13773 -0.453137,-0.107678 -0.157613,0.0305965 -0.295615,0.127198 -0.380958,0.265291 -0.456133,0.767545 -0.798233,1.59347 -1.01677,2.45535 -0.0382229,0.156887 -0.00780801,0.323034 0.083346,0.45813 0.0883394,0.132827 0.234967,0.223345 0.394486,0.243138 0.806767,0.104773 1.41398,0.792694 1.41398,1.60137 0,0.806495 -0.607118,1.4946 -1.41398,1.59919 -0.15961,0.019974 -0.306147,0.108313 -0.394486,0.240323 -0.0912448,0.135006 -0.121569,0.301153 -0.083346,0.45804 0.218533,0.864782 0.560633,1.69071 1.01677,2.45562 0.0827104,0.140453 0.223345,0.2376 0.380958,0.268014 0.157613,0.0302333 0.323306,-0.00862513 0.453137,-0.107496 0.623642,-0.480737 1.57667,-0.425446 2.13168,0.129468 0.571891,0.571891 0.627001,1.48879 0.130012,2.13513 -0.0995975,0.126562 -0.13782,0.292619 -0.107406,0.450232 0.0295978,0.157068 0.129377,0.297612 0.267197,0.381049 0.765185,0.455407 1.59084,0.795418 2.45535,1.01595 0.0467573,0.0112581 0.0942409,0.0168871 0.13782,0.0168871 0.114033,0 0.224344,-0.0330479 0.318313,-0.0966922 0.135097,-0.0913355 0.223436,-0.234694 0.242593,-0.395212 0.105408,-0.809037 0.792604,-1.41706 1.602,-1.41706 0.806495,0 1.49669,0.608117 1.59937,1.41706 0.0217898,0.160518 0.107224,0.303877 0.242321,0.395212 0.135823,0.0909724 0.301244,0.118754 0.458766,0.0797143 0.864782,-0.22044 1.69043,-0.560633 2.45535,-1.01595 0.138093,-0.0834367 0.234785,-0.221166 0.265291,-0.381049 0.0324123,-0.157613 -0.00862513,-0.323669 -0.105408,-0.450232 -0.496807,-0.646249 -0.441697,-1.56324 0.130194,-2.13231 0.557637,-0.557728 1.50731,-0.613019 2.13159,-0.129468 0.127289,0.0961475 0.292528,0.135006 0.450322,0.104773 0.160427,-0.0303241 0.29852,-0.12747 0.381231,-0.265018 0.455861,-0.767909 0.79796,-1.59374 1.01649,-2.45852 0.0408559,-0.153981 0.0106225,-0.320038 -0.080713,-0.454953 -0.0909724,-0.135006 -0.234694,-0.223345 -0.39721,-0.24341l-9.07908e-005 -9.07908e-005zm-1.24284 2.08229c-1.01895,-0.452501 -2.27031,-0.23197 -3.06274,0.560633 -0.814393,0.815029 -1.01377,2.04125 -0.560633,3.06274 -0.361892,0.182308 -0.734588,0.337106 -1.11854,0.464304 -0.400115,-1.04437 -1.40835,-1.77033 -2.56275,-1.77033 -1.15459,0 -2.163,0.726054 -2.56284,1.77033 -0.383954,-0.127198 -0.759374,-0.281996 -1.12118,-0.464304 0.455861,-1.01876 0.256484,-2.24771 -0.560906,-3.06274 -0.516146,-0.516146 -1.20389,-0.800502 -1.93294,-0.800502 -0.389583,0 -0.776171,0.0829828 -1.12953,0.239869 -0.18249,-0.361257 -0.337379,-0.736949 -0.463759,-1.12063 1.04346,-0.400751 1.77024,-1.40898 1.77024,-2.56275 0,-1.15177 -0.72678,-2.16291 -1.77024,-2.56302 0.126381,-0.383773 0.28127,-0.76001 0.463759,-1.11854 0.353358,0.157068 0.739945,0.239597 1.12953,0.239597 0.731683,0 1.41679,-0.284084 1.93584,-0.800049 0.814484,-0.815301 1.01377,-2.04397 0.557909,-3.06274 0.361892,-0.18249 0.737312,-0.340102 1.12118,-0.464667 0.399933,1.04146 1.40835,1.76752 2.56284,1.76752 1.1545,0 2.16273,-0.726054 2.56275,-1.76752 0.383954,0.127198 0.759374,0.282087 1.11854,0.464667 -0.455861,1.01876 -0.25376,2.24744 0.560633,3.06274 0.519051,0.515873 1.20398,0.800049 1.93584,0.800049 0.389402,0 0.773265,-0.0825288 1.1269,-0.239597 0.185213,0.361438 0.339194,0.73477 0.466483,1.11854 -1.04346,0.400115 -1.77015,1.41125 -1.77015,2.56302 0,1.15377 0.72669,2.162 1.77015,2.56275 -0.127198,0.383773 -0.28127,0.759374 -0.466483,1.12063l9.07908e-005 0zm-7.30739 -8.59144c-2.70348,0 -4.90752,2.20086 -4.90752,4.90806 0,2.7062 2.20404,4.90706 4.90752,4.90706 2.7062,0 4.90706,-2.20086 4.90706,-4.90706 0,-2.7072 -2.20086,-4.90806 -4.90706,-4.90806zm0 8.68559c-2.08238,0 -3.77544,-1.69561 -3.77544,-3.77753 0,-2.08292 1.69307,-3.77826 3.77544,-3.77826 2.08465,0 3.77808,1.69534 3.77808,3.77826 0,2.08201 -1.69334,3.77753 -3.77808,3.77753zm0 -6.45931c-1.47771,0 -2.68169,1.20425 -2.68169,2.68178 0,1.47689 1.20389,2.68151 2.68169,2.68151 1.48025,0 2.68441,-1.20461 2.68441,-2.68151 0,-1.47753 -1.20425,-2.68178 -2.68441,-2.68178zm0 3.7394c-0.582605,0 -1.0578,-0.472294 -1.0578,-1.05762 0,-0.583331 0.475199,-1.05826 1.0578,-1.05826 0.585328,0 1.06035,0.474927 1.06035,1.05826 0,0.585328 -0.475017,1.05762 -1.06035,1.05762z"/>
  </g>
  <polygon class="fil0" points="38.0594,0 38.867,0 38.867,32.8725 38.0594,32.8725 "/>
  <path class="fil1" d="M47.2042 7.56687c-0.246043,0.299246 -0.593499,0.553552 -1.04237,0.764731 -0.447235,0.211089 -1.02403,0.317495 -1.72893,0.317495 -0.87949,0 -1.59429,-0.27092 -2.14294,-0.809582 -0.548649,-0.538662 -0.822928,-1.23857 -0.822928,-2.09972l0 -1.47953c0,-0.854523 0.266017,-1.5528 0.80132,-2.09473 0.533668,-0.54193 1.22186,-0.812941 2.06141,-0.812941 0.906092,0 1.59102,0.201192 2.05314,0.606755 0.46385,0.404019 0.686651,0.955936 0.670036,1.65748l-0.00998699 0.029961 -1.54281 0c0,-0.347456 -0.0930606,-0.606755 -0.277638,-0.774718 -0.186121,-0.169597 -0.465484,-0.252671 -0.837818,-0.252671 -0.384045,0 -0.691644,0.149623 -0.925975,0.452138 -0.234422,0.302606 -0.350816,0.694913 -0.350816,1.17874l0 1.48951c0,0.493811 0.116394,0.891112 0.349091,1.19199 0.231063,0.299246 0.556911,0.450504 0.97591,0.450504 0.302515,0 0.540296,-0.0248767 0.713162,-0.0730866 0.174591,-0.0482099 0.310868,-0.11476 0.412281,-0.194565l0 -1.26671 -1.25682 0 0 -1.09058 2.90267 0 0 2.80952zm5.13368 -2.05478l-2.49874 0 0 1.76715 2.99582 0 0 1.2668 -4.64159 0 0 -7.09203 4.64649 0 0 1.2668 -3.00073 0 0 1.52447 2.49874 0 0 1.2668zm3.06882 0.315861l0 2.7181 -1.64576 0 0 -7.09203 2.46869 0c0.821294,0 1.47299,0.191205 1.95336,0.570257 0.480465,0.380686 0.721514,0.899374 0.721514,1.55933 0,0.365796 -0.0980541,0.681657 -0.290894,0.944315 -0.19284,0.262658 -0.477106,0.477106 -0.854523,0.643344 0.435614,0.123022 0.748116,0.327482 0.937687,0.615108 0.18948,0.287625 0.284266,0.646703 0.284266,1.07396l0 0.44887c0,0.184487 0.0282359,0.395666 0.0830736,0.633357 0.0548376,0.236056 0.151348,0.405653 0.287625,0.505432l0 0.0980541 -1.69906 0c-0.129649,-0.101413 -0.214448,-0.277638 -0.254305,-0.530309 -0.0382229,-0.254396 -0.0581969,-0.492086 -0.0581969,-0.716521l0 -0.428896c0,-0.337469 -0.0897921,-0.595224 -0.267651,-0.774718 -0.177859,-0.177859 -0.440608,-0.267651 -0.784705,-0.267651l-0.881125 0zm0 -1.26517l0.832915 0c0.330842,0 0.585238,-0.0764459 0.759737,-0.227703 0.176225,-0.151348 0.262658,-0.36743 0.262658,-0.650062 0,-0.289259 -0.0897013,-0.521956 -0.269286,-0.698181 -0.181218,-0.17795 -0.435523,-0.266017 -0.763097,-0.266017l-0.822928 0 0 1.84196zm8.85928 0.949309l-2.49874 0 0 1.76715 2.99582 0 0 1.2668 -4.64159 0 0 -7.09203 4.64649 0 0 1.2668 -3.00073 0 0 1.52447 2.49874 0 0 1.2668zm7.33472 3.03396l-1.64086 0 -2.59507 -4.462 -0.029961 0.00998699 0 4.45202 -1.64576 0 0 -7.09203 1.64576 0 2.5968 4.45701 0.0282359 -0.00998699 0 -4.44702 1.64086 0 0 7.09203zm6.57507 -2.39061l0.00998699 0.0282359c0.0132555,0.807947 -0.214539,1.42142 -0.685017,1.8387 -0.468753,0.417275 -1.1338,0.626729 -1.99322,0.626729 -0.877765,0 -1.58103,-0.269286 -2.11134,-0.804588 -0.531943,-0.535303 -0.796326,-1.23684 -0.796326,-2.10471l0 -1.47953c0,-0.86451 0.25603,-1.56442 0.766365,-2.10135 0.51206,-0.538662 1.18872,-0.806313 2.02827,-0.806313 0.899374,0 1.59592,0.209454 2.08801,0.628454 0.492086,0.418909 0.731501,1.02739 0.718155,1.82535l-0.0148897 0.0298702 -1.60264 0c0,-0.435523 -0.0914263,-0.746391 -0.277638,-0.935962 -0.184578,-0.187846 -0.488727,-0.280907 -0.910995,-0.280907 -0.369065,0 -0.653421,0.147989 -0.851255,0.44551 -0.197742,0.295978 -0.297521,0.691554 -0.297521,1.18536l0 1.48951c0,0.49708 0.108041,0.896105 0.325848,1.19363 0.217716,0.299246 0.530309,0.44887 0.935962,0.44887 0.375692,0 0.648337,-0.0946948 0.814575,-0.282541 0.167872,-0.187937 0.251037,-0.503798 0.251037,-0.944315l1.60264 0zm2.66489 2.39061l-1.6425 0 0 -7.09203 1.6425 0 0 7.09203zm5.03045 -1.3782l-2.10798 0 -0.408922 1.3782 -1.73392 0 2.31244 -7.09203 0.882759 0 0 0.00499349 0.00335926 -0.00499349 0.882759 0 2.31744 7.09203 -1.73392 0 -0.414006 -1.3782zm-1.72893 -1.2668l1.34997 0 -0.663318 -2.20104 -0.0283267 0 -0.658324 2.20104zm4.38392 2.64501l0 -7.09203 2.59507 0c0.834549,0 1.53273,0.272645 2.09473,0.8163 0.561904,0.543565 0.842811,1.24184 0.842811,2.09137l0 1.2767c0,0.854523 -0.280907,1.5528 -0.842811,2.09473 -0.561995,0.54193 -1.26018,0.812941 -2.09473,0.812941l-2.59507 0zm1.64576 -5.82523l0 4.55842 0.949309 0c0.374058,0 0.681567,-0.152892 0.924341,-0.457132 0.24105,-0.305965 0.362346,-0.699906 0.362346,-1.18373l0 -1.28505c0,-0.47874 -0.121297,-0.869413 -0.362346,-1.17538 -0.242775,-0.30424 -0.550283,-0.457132 -0.924341,-0.457132l-0.949309 0zm10.7644 2.91756c0,0.872863 -0.277638,1.59265 -0.831281,2.15955 -0.553552,0.566898 -1.27679,0.851164 -2.16945,0.851164 -0.899464,0 -1.62761,-0.284266 -2.18615,-0.851164 -0.558636,-0.566898 -0.837908,-1.28669 -0.837908,-2.15955l0 -1.2767c0,-0.869504 0.277638,-1.58938 0.834549,-2.15628 0.556911,-0.568532 1.28342,-0.852798 2.17952,-0.852798 0.889387,0 1.61417,0.284266 2.17281,0.852798 0.558545,0.566898 0.837908,1.28678 0.837908,2.15628l0 1.2767zm-1.64259 -1.28505c0,-0.507067 -0.118028,-0.922616 -0.357353,-1.24683 -0.237781,-0.325848 -0.575251,-0.487093 -1.01077,-0.487093 -0.443876,0 -0.784705,0.161244 -1.02076,0.483733 -0.234422,0.32258 -0.35245,0.739854 -0.35245,1.25019l0 1.28505c0,0.513694 0.119662,0.932694 0.357443,1.25682 0.239415,0.324214 0.581878,0.487093 1.02575,0.487093 0.432164,0 0.766365,-0.162879 1.00406,-0.487093 0.236056,-0.324123 0.354084,-0.743123 0.354084,-1.25682l0 -1.28505zm4.29077 1.47462l0 2.7181 -1.64576 0 0 -7.09203 2.46869 0c0.821294,0 1.47299,0.191205 1.95336,0.570257 0.480465,0.380686 0.721514,0.899374 0.721514,1.55933 0,0.365796 -0.0980541,0.681657 -0.290894,0.944315 -0.19284,0.262658 -0.477106,0.477106 -0.854523,0.643344 0.435614,0.123022 0.748116,0.327482 0.937687,0.615108 0.18948,0.287625 0.284266,0.646703 0.284266,1.07396l0 0.44887c0,0.184487 0.0282359,0.395666 0.0830736,0.633357 0.0548376,0.236056 0.151348,0.405653 0.287625,0.505432l0 0.0980541 -1.69906 0c-0.129649,-0.101413 -0.214448,-0.277638 -0.254305,-0.530309 -0.0382229,-0.254396 -0.0581969,-0.492086 -0.0581969,-0.716521l0 -0.428896c0,-0.337469 -0.0897921,-0.595224 -0.267651,-0.774718 -0.177859,-0.177859 -0.440608,-0.267651 -0.784705,-0.267651l-0.881125 0zm0 -1.26517l0.832915 0c0.330842,0 0.585238,-0.0764459 0.759737,-0.227703 0.176225,-0.151348 0.262658,-0.36743 0.262658,-0.650062 0,-0.289259 -0.0897013,-0.521956 -0.269286,-0.698181 -0.181218,-0.17795 -0.435523,-0.266017 -0.763097,-0.266017l-0.822928 0 0 1.84196z"/>
  <path class="fil1" d="M45.3247 16.8566l0.0280544 0 1.59365 -4.93621 2.16554 0 0 7.05218 -1.63659 0 0 -4.54272 -0.0296886 -0.00499349 -1.55398 4.54771 -1.0993 0 -1.52583 -4.47989 -0.0297794 0.0049027 0 4.47499 -1.6365 0 0 -7.05218 2.14566 0 1.57876 4.93621zm8.68877 0.745574l-2.09618 0 -0.406652 1.3704 -1.72421 0 2.29946 -7.05218 0.877856 0 0 0.00499349 0.00326847 -0.00499349 0.877765 0 2.30445 7.05218 -1.72421 0 -0.411555 -1.3704zm-1.71931 -1.25972l1.34234 0 -0.659595 -2.18869 -0.0280544 0 -0.654692 2.18869zm10.2378 2.63012l-1.6316 0 -2.58055 -4.43695 -0.0297794 0.0098962 0 4.42705 -1.6365 0 0 -7.05218 1.6365 0 2.58218 4.43204 0.0281451 -0.00998699 0 -4.42206 1.6316 0 0 7.05218zm6.90164 -7.05218l0 4.5725c0,0.806767 -0.267833,1.43985 -0.803408,1.89617 -0.5373,0.456224 -1.23485,0.686015 -2.09781,0.686015 -0.867869,0 -1.57204,-0.229792 -2.11098,-0.686015 -0.538934,-0.456315 -0.810036,-1.0894 -0.810036,-1.89617l0 -4.5725 1.64322 0 0 4.5725c0,0.436431 0.112399,0.765366 0.338831,0.988621 0.224889,0.221439 0.538934,0.333929 0.938958,0.333929 0.396756,0 0.705898,-0.110765 0.927428,-0.332294 0.22153,-0.22153 0.332294,-0.550465 0.332294,-0.990255l0 -4.5725 1.6415 0zm5.99092 1.25972l-1.86475 0 0 5.79245 -1.63823 0 0 -5.79245 -1.82998 0 0 -1.25972 5.33296 0 0 1.25972zm4.78404 2.77557l-2.48467 0 0 1.75726 2.97894 0 0 1.25963 -4.61544 0 0 -7.05218 4.62043 0 0 1.25972 -2.98393 0 0 1.51584 2.48467 0 0 1.25972zm7.2935 3.01689l-1.6316 0 -2.58055 -4.43695 -0.0297794 0.0098962 0 4.42705 -1.6365 0 0 -7.05218 1.6365 0 2.58218 4.43204 0.0281451 -0.00998699 0 -4.42206 1.6316 0 0 7.05218zm6.53794 -2.37718l0.00998699 0.0281451c0.0131647,0.803408 -0.213268,1.41334 -0.681113,1.82835 -0.466211,0.414914 -1.12744,0.623188 -1.98205,0.623188 -0.872863,0 -1.57213,-0.267833 -2.09945,-0.800139 -0.529038,-0.532306 -0.791877,-1.22985 -0.791877,-2.09282l0 -1.47126c0,-0.859607 0.254577,-1.55552 0.762098,-2.08946 0.509155,-0.535666 1.18201,-0.801774 2.01683,-0.801774 0.894289,0 1.58693,0.208274 2.07629,0.624822 0.489272,0.416639 0.727325,1.02167 0.71407,1.81509l-0.0147989 0.0297794 -1.59365 0c0,-0.433072 -0.0908816,-0.742215 -0.276004,-0.930697 -0.183579,-0.186757 -0.486094,-0.279363 -0.905911,-0.279363 -0.367067,0 -0.649699,0.147172 -0.846443,0.443059 -0.196744,0.294253 -0.295887,0.68765 -0.295887,1.17865l0 1.48116c0,0.494265 0.107496,0.891021 0.324032,1.18691 0.216536,0.297612 0.527313,0.446418 0.930697,0.446418 0.373604,0 0.644705,-0.0942409 0.810036,-0.281088 0.166964,-0.186757 0.249584,-0.500893 0.249584,-0.938958l1.59356 0zm-2.13576 2.32924l-0.0495718 0.294253c0.20664,0.0364071 0.380141,0.120661 0.519051,0.252943 0.138819,0.132191 0.208274,0.327301 0.208274,0.585147 0,0.368701 -0.157068,0.661229 -0.469479,0.877856 -0.314136,0.214902 -0.760464,0.323942 -1.34234,0.323942l-0.0330479 -0.900917c0.132282,0 0.236419,-0.0314136 0.312411,-0.0925158 0.0760827,-0.061193 0.114124,-0.155434 0.114124,-0.281088 0,-0.122295 -0.0496626,-0.208274 -0.148806,-0.257846 -0.0975093,-0.0512968 -0.264474,-0.0827104 -0.500893,-0.0958751l0.15044 -0.705898 1.23984 0zm6.7414 -1.32246l-2.09618 0 -0.406652 1.3704 -1.72421 0 2.29946 -7.05218 0.877856 0 0 0.00499349 0.00326847 -0.00499349 0.877765 0 2.30445 7.05218 -1.72421 0 -0.411555 -1.3704zm-1.71931 -1.25972l1.34234 0 -0.659595 -2.18869 -0.0280544 0 -0.654692 2.18869zm2.51935 -6.38259c0,0.310777 -0.0975093,0.575251 -0.290894,0.79678 -0.193475,0.22153 -0.436431,0.332294 -0.727416,0.332294 -0.224798,0 -0.490997,-0.0678207 -0.79678,-0.203371 -0.304149,-0.135551 -0.540568,-0.203281 -0.709167,-0.203281 -0.105862,0 -0.195109,0.051206 -0.266199,0.156977 -0.0710892,0.104228 -0.105771,0.229792 -0.105771,0.375329l-0.862876 -0.243047c0,-0.302515 0.0958751,-0.566989 0.289259,-0.791787 0.19175,-0.223255 0.433072,-0.335654 0.724057,-0.335654 0.18022,0 0.434797,0.0661865 0.762098,0.200012 0.327301,0.133916 0.575251,0.201737 0.743849,0.201737 0.0992343,0 0.186847,-0.0512968 0.262839,-0.155434 0.0760827,-0.102503 0.114124,-0.229792 0.114124,-0.376873l0.862876 0.246315zm7.70015 6.12148c0,0.867869 -0.276004,1.58366 -0.826469,2.14729 -0.550555,0.56372 -1.26962,0.846443 -2.15737,0.846443 -0.894289,0 -1.61835,-0.282723 -2.1738,-0.846443 -0.555458,-0.563629 -0.833187,-1.27942 -0.833187,-2.14729l0 -1.26962c0,-0.864601 0.276095,-1.5804 0.829919,-2.14412 0.553733,-0.565354 1.27616,-0.847986 2.16718,-0.847986 0.884393,0 1.60518,0.282632 2.16064,0.847986 0.555458,0.56372 0.833096,1.27951 0.833096,2.14412l0 1.26962zm-1.63324 -1.27788c0,-0.504252 -0.117393,-0.917532 -0.355446,-1.23984 -0.236328,-0.324032 -0.571982,-0.484369 -1.00505,-0.484369 -0.441334,0 -0.780256,0.160337 -1.01504,0.4811 -0.23306,0.320673 -0.350452,0.735587 -0.350452,1.24311l0 1.27788c0,0.510789 0.119027,0.927337 0.355446,1.24974 0.238053,0.322307 0.57861,0.484369 1.01994,0.484369 0.429804,0 0.762098,-0.162062 0.998517,-0.484369 0.234694,-0.322398 0.352087,-0.738946 0.352087,-1.24974l0 -1.27788z"/>
  <path class="fil1" d="M41.3512 26.2098l0 -3.92806 1.4374 0c0.462216,0 0.848894,0.150985 1.16012,0.452138 0.311231,0.301062 0.466846,0.687831 0.466846,1.15831l0 0.70717c0,0.473292 -0.155615,0.85997 -0.466846,1.16022 -0.311231,0.300154 -0.697909,0.450232 -1.16012,0.450232l-1.4374 0zm0.91163 -3.22643l0 2.5248 0.52577 0c0.207185,0 0.377508,-0.0847078 0.511879,-0.253216 0.133553,-0.169416 0.200738,-0.387677 0.200738,-0.6556l0 -0.7118c0,-0.2652 -0.0671852,-0.481554 -0.200738,-0.65097 -0.13437,-0.168508 -0.304694,-0.253216 -0.511879,-0.253216l-0.52577 0zm4.69597 2.46306l-1.16757 0 -0.226523 0.763369 -0.960385 0 1.28079 -3.92806 0.488999 0 0 0.00272372 0.00181582 -0.00272372 0.488908 0 1.2836 3.92806 -0.960385 0 -0.229247 -0.763369zm-0.957661 -0.701631l0.747662 0 -0.36734 -1.21905 -0.0157068 0 -0.364616 1.21905z"/>
  <path class="fil1" d="M51.5721 28.1962l0 3.07754 -1.83307 0 0 -8.98003 3.01634 0c0.93687,0 1.67936,0.271555 2.22928,0.814666 0.54992,0.543111 0.824017,1.25673 0.824017,2.14085 0,0.88403 -0.274097,1.59556 -0.824017,2.13658 -0.54992,0.540932 -1.29241,0.810399 -2.22928,0.810399l-1.18328 0zm0 -1.604l1.18328 0c0.398027,0 0.701722,-0.124202 0.910904,-0.372605 0.209273,-0.248404 0.314862,-0.56835 0.314862,-0.957752 0,-0.400024 -0.103774,-0.726236 -0.312956,-0.980995 -0.207366,-0.254668 -0.511061,-0.383046 -0.912811,-0.383046l-1.18328 0 0 2.6944zm7.08432 1.23984l0 3.4417 -1.83307 0 0 -8.98003 2.7496 0c0.914717,0 1.64059,0.242139 2.17571,0.722059 0.535121,0.482008 0.803589,1.13879 0.803589,1.97452 0,0.463124 -0.109221,0.863057 -0.324032,1.19562 -0.21472,0.332567 -0.531399,0.604122 -0.951669,0.814666 0.485004,0.155706 0.833187,0.414642 1.04428,0.778803 0.210998,0.364162 0.316588,0.818842 0.316588,1.35986l0 0.56835c0,0.233696 0.0315044,0.500984 0.0926066,0.802046 0.0611022,0.298883 0.168508,0.513604 0.32031,0.639894l0 0.124202 -1.89235 0c-0.144448,-0.128378 -0.238871,-0.351542 -0.283267,-0.671489 -0.0426717,-0.322035 -0.0648246,-0.623097 -0.0648246,-0.907272l0 -0.543111c0,-0.427262 -0.0999607,-0.753564 -0.298157,-0.980904 -0.198106,-0.225252 -0.490633,-0.338922 -0.873861,-0.338922l-0.981449 0zm0 -1.60191l0.9277 0c0.368429,0 0.651787,-0.0968738 0.84617,-0.288352 0.19629,-0.191569 0.292528,-0.465212 0.292528,-0.823109 0,-0.36625 -0.0999607,-0.660957 -0.299973,-0.884121 -0.201828,-0.225252 -0.485095,-0.336743 -0.849893,-0.336743l-0.916533 0 0 2.33232zm11.8152 1.36195c0,1.10511 -0.309233,2.01655 -0.925885,2.73444 -0.61656,0.717792 -1.42197,1.07769 -2.4164,1.07769 -1.00169,0 -1.81264,-0.359895 -2.43483,-1.07769 -0.622099,-0.717883 -0.933239,-1.62933 -0.933239,-2.73444l0 -1.61662c0,-1.10093 0.309233,-2.01247 0.929516,-2.73026 0.620283,-0.71988 1.42941,-1.07987 2.42747,-1.07987 0.990709,0 1.79793,0.359986 2.42012,1.07987 0.622189,0.717792 0.933239,1.62933 0.933239,2.73026l0 1.61662zm-1.82943 -1.62715c0,-0.642073 -0.131465,-1.1683 -0.398118,-1.57876 -0.264746,-0.412644 -0.64062,-0.616833 -1.12581,-0.616833 -0.494356,0 -0.873952,0.204189 -1.13679,0.612566 -0.261205,0.408377 -0.39267,0.936779 -0.39267,1.58303l0 1.62715c0,0.650425 0.133372,1.18092 0.398118,1.59138 0.266653,0.410465 0.648156,0.616742 1.14242,0.616742 0.481554,0 0.853706,-0.206277 1.11845,-0.616742 0.26293,-0.410465 0.394395,-0.940956 0.394395,-1.59138l0 -1.62715zm2.94598 5.30881l0 -8.98003 2.89033 0c0.929516,0 1.70723,0.345277 2.33305,1.03356 0.625821,0.688376 0.938777,1.5725 0.938777,2.64819l0 1.61662c0,1.08195 -0.312956,1.96607 -0.938777,2.65227 -0.625821,0.686288 -1.40353,1.02939 -2.33305,1.02939l-2.89033 0zm1.83307 -7.37594l0 5.77193 1.05726 0c0.416639,0 0.759193,-0.193657 1.02948,-0.578882 0.268559,-0.387314 0.403747,-0.886209 0.403747,-1.49877l0 -1.62715c0,-0.606301 -0.135188,-1.10093 -0.403747,-1.48824 -0.270284,-0.385225 -0.612838,-0.578882 -1.02948,-0.578882l-1.05726 0zm11.8968 -1.60409l0 5.8225c0,1.02721 -0.299973,1.83343 -0.899918,2.41449 -0.601852,0.58097 -1.3832,0.873498 -2.34976,0.873498 -0.972097,0 -1.76089,-0.292528 -2.36446,-0.873498 -0.603668,-0.581061 -0.907363,-1.38728 -0.907363,-2.41449l0 -5.8225 1.84051 0 0 5.8225c0,0.55573 0.125927,0.974639 0.379596,1.25881 0.251854,0.282087 0.603668,0.425173 1.05172,0.425173 0.444421,0 0.790697,-0.140998 1.03874,-0.423085 0.248131,-0.282087 0.372242,-0.700996 0.372242,-1.2609l0 -5.8225 1.8387 0zm7.27861 5.95297l0.0111673 0.0358624c0.0147989,1.02303 -0.238871,1.79975 -0.762824,2.32815 -0.522229,0.528312 -1.2629,0.793512 -2.22011,0.793512 -0.977726,0 -1.76098,-0.34101 -2.35166,-1.01876 -0.59241,-0.677844 -0.886935,-1.56614 -0.886935,-2.66498l0 -1.87347c0,-1.09457 0.285174,-1.98078 0.853706,-2.66072 0.570257,-0.68202 1.32382,-1.02094 2.25897,-1.02094 1.00169,0 1.7775,0.2652 2.32561,0.795691 0.548104,0.530491 0.814666,1.30094 0.799958,2.31135l-0.0167055 0.0378598 -1.78504 0c0,-0.551554 -0.101776,-0.945132 -0.309233,-1.18509 -0.20546,-0.237872 -0.544291,-0.355809 -1.01459,-0.355809 -0.411101,0 -0.727688,0.187392 -0.948038,0.564174 -0.220349,0.374694 -0.331477,0.875677 -0.331477,1.50086l0 1.88609c0,0.629453 0.120389,1.13461 0.362891,1.51139 0.242593,0.378961 0.590685,0.56835 1.04255,0.56835 0.418364,0 0.722059,-0.119935 0.907182,-0.357807 0.187029,-0.237872 0.279636,-0.637805 0.279636,-1.19571l1.78495 0zm-2.39225 2.96604l-0.055564 0.374694c0.231426,0.0463033 0.4259,0.153618 0.581424,0.322035 0.155525,0.168417 0.233332,0.416821 0.233332,0.745211 0,0.469388 -0.175953,0.841994 -0.52586,1.11773 -0.351814,0.273643 -0.851799,0.412553 -1.50359,0.412553l-0.0369519 -1.14723c0.14808,0 0.264746,-0.039948 0.349908,-0.117846 0.0851618,-0.0778985 0.127833,-0.197833 0.127833,-0.357897 0,-0.155706 -0.0556548,-0.2652 -0.166692,-0.3283 -0.109221,-0.0652786 -0.296341,-0.105317 -0.561087,-0.122114l0.168508 -0.898829 1.38874 0zm7.55098 -1.68408l-2.34785 0 -0.455588 1.74509 -1.93121 0 2.57564 -8.98003 0.983174 0 0 0.00635536 0.00363163 -0.00635536 0.983264 0 2.58118 8.98003 -1.93121 0 -0.461036 -1.74509zm-1.92576 -1.604l1.5035 0 -0.738765 -2.78701 -0.0315044 0 -0.733227 2.78701zm2.82187 -8.12741c0,0.395666 -0.109221,0.7325 -0.325848,1.01459 -0.216627,0.282087 -0.488818,0.423085 -0.814757,0.423085 -0.251763,0 -0.54992,-0.0862513 -0.892474,-0.258935 -0.340647,-0.172593 -0.605484,-0.258845 -0.794329,-0.258845 -0.118482,0 -0.218443,0.0651878 -0.298066,0.199921 -0.0796235,0.132645 -0.118482,0.292619 -0.118482,0.477832l-0.966559 -0.309415c0,-0.385225 0.107406,-0.722059 0.323942,-1.00832 0.214811,-0.284175 0.485186,-0.427262 0.811125,-0.427262 0.201737,0 0.486911,0.0841631 0.853524,0.254668 0.366613,0.170505 0.644342,0.256847 0.833187,0.256847 0.111128,0 0.209273,-0.0652786 0.294435,-0.197924 0.0851618,-0.130466 0.127833,-0.292619 0.127833,-0.47992l0.966468 0.313682zm8.62494 7.79484c0,1.10511 -0.309233,2.01655 -0.925885,2.73444 -0.61656,0.717792 -1.42197,1.07769 -2.4164,1.07769 -1.00169,0 -1.81264,-0.359895 -2.43483,-1.07769 -0.622099,-0.717883 -0.933239,-1.62933 -0.933239,-2.73444l0 -1.61662c0,-1.10093 0.309233,-2.01247 0.929516,-2.73026 0.620283,-0.71988 1.42941,-1.07987 2.42747,-1.07987 0.990709,0 1.79793,0.359986 2.42012,1.07987 0.622099,0.717792 0.933239,1.62933 0.933239,2.73026l0 1.61662zm-1.82943 -1.62715c0,-0.642073 -0.131465,-1.1683 -0.398118,-1.57876 -0.264746,-0.412644 -0.64062,-0.616833 -1.12581,-0.616833 -0.494356,0 -0.873952,0.204189 -1.13679,0.612566 -0.261205,0.408377 -0.39267,0.936779 -0.39267,1.58303l0 1.62715c0,0.650425 0.133372,1.18092 0.398118,1.59138 0.266653,0.410465 0.648065,0.616742 1.14242,0.616742 0.481554,0 0.853706,-0.206277 1.11845,-0.616742 0.26293,-0.410465 0.394395,-0.940956 0.394395,-1.59138l0 -1.62715z"/>
 </g>
</svg>
