<?xml version="1.0" encoding="UTF-8"?>
<!DOCTYPE svg PUBLIC "-//W3C//DTD SVG 1.1//EN" "http://www.w3.org/Graphics/SVG/1.1/DTD/svg11.dtd">
<!-- Creator: CorelDRAW -->
<svg xmlns="http://www.w3.org/2000/svg" xml:space="preserve" width="546px" height="177px" style="shape-rendering:geometricPrecision; text-rendering:geometricPrecision; image-rendering:optimizeQuality; fill-rule:evenodd; clip-rule:evenodd"
viewBox="0 0 1644.01 533.769"
 xmlns:xlink="http://www.w3.org/1999/xlink">
 <defs>
  <style type="text/css">
   <![CDATA[
    .fil0 {fill:#FFEB3B}
    .fil1 {fill:#FFEB3B;fill-rule:nonzero}
   ]]>
  </style>
 </defs>
 <g id="Camada_x0020_1">
  <metadata id="CorelCorpID_0Corel-Layer"/>
  <path class="fil0" d="M15.6328 2.29173l525.766 0c8.59753,0 15.6328,9.021 15.6328,20.049l0 462.103c0,11.028 -7.03531,20.049 -15.6328,20.049l-525.766 0c-8.59753,0 -15.6328,-9.021 -15.6328,-20.049l0 -462.103c0,-11.028 7.03531,-20.049 15.6328,-20.049zm10.7505 104.928l504.639 0 0 358.691 -504.639 0 0 -358.691zm376.227 -73.1003c8.3769,0 15.1667,8.7114 15.1667,19.4512 0,10.7434 -6.78977,19.4512 -15.1667,19.4512 -8.3769,0 -15.1667,-8.70784 -15.1667,-19.4512 0,-10.7398 6.78977,-19.4512 15.1667,-19.4512zm53.7737 0c8.37334,0 15.1667,8.7114 15.1667,19.4512 0,10.7434 -6.79333,19.4512 -15.1667,19.4512 -8.3769,0 -15.1667,-8.70784 -15.1667,-19.4512 0,-10.7398 6.78977,-19.4512 15.1667,-19.4512zm49.6351 0c8.3769,0 15.1667,8.7114 15.1667,19.4512 0,10.7434 -6.78977,19.4512 -15.1667,19.4512 -8.37334,0 -15.1667,-8.70784 -15.1667,-19.4512 0,-10.7398 6.79333,-19.4512 15.1667,-19.4512z"/>
  <path class="fil0" d="M410.479 310.881c-12.7682,-1.701 -22.4297,-12.5476 -22.4297,-25.3478 0,-12.818 9.66154,-23.7073 22.4297,-25.3193 2.57285,-0.348741 4.84679,-1.74726 6.28801,-3.85038 1.39852,-2.13871 1.88249,-4.7685 1.27753,-7.25239 -3.5052,-13.6863 -8.9178,-26.7605 -16.1417,-38.8704 -1.306,-2.22767 -3.48741,-3.76142 -5.98553,-4.24183 -2.54083,-0.483967 -5.11368,0.135226 -7.1741,1.701 -9.8715,7.6545 -24.9136,6.78265 -33.7425,-2.04618 -9.10285,-9.05659 -9.9747,-23.5756 -2.06398,-33.7567 1.58001,-2.00348 2.19564,-4.63327 1.71524,-7.16698 -0.483967,-2.49101 -2.01416,-4.67597 -4.24183,-5.99977 -12.1098,-7.20612 -25.1805,-12.6223 -38.8704,-16.1239 -0.565814,-0.138785 -1.1423,-0.227749 -1.71168,-0.256218l-0.999961 0c-1.60136,0.0854059 -3.17069,0.594283 -4.54431,1.51951 -2.10312,1.49104 -3.50164,3.76142 -3.84682,6.30224 -1.66897,12.7575 -12.5476,22.3835 -25.3157,22.3835 -12.8073,0 -23.6966,-9.62596 -25.3656,-22.3835 -0.298921,-2.54083 -1.69744,-4.85746 -3.83615,-6.30224 -1.41276,-0.935906 -3.06038,-1.46258 -4.76138,-1.51951l-0.654779 0c-0.619193,0.0213515 -1.23483,0.106757 -1.85046,0.256218 -13.6436,3.50164 -26.7036,8.92136 -38.8277,16.1239 -2.18141,1.32379 -3.71516,3.50876 -4.18489,6.03535 -0.480408,2.49812 0.12455,5.12791 1.701,7.13139 7.86802,10.2274 6.99617,24.7464 -2.05686,33.7994 -8.78613,8.78613 -23.8745,9.65799 -33.746,2.04974 -2.05686,-1.56578 -4.63327,-2.18141 -7.1741,-1.70456 -2.49456,0.483967 -4.67953,2.01416 -6.03179,4.19912 -7.22036,12.1525 -12.6365,25.2268 -16.0955,38.8704 -0.604959,2.48389 -0.12455,5.11368 1.32023,7.25239 1.39852,2.10312 3.71872,3.53723 6.24531,3.85038 12.7717,1.6583 22.3835,12.5476 22.3835,25.3513 0,12.7682 -9.61172,23.661 -22.3835,25.3157 -2.52659,0.316714 -4.84679,1.71524 -6.24531,3.80412 -1.44478,2.13871 -1.92519,4.7685 -1.32023,7.25239 3.45894,13.6899 8.8751,26.7641 16.0955,38.8739 1.30956,2.22411 3.53723,3.76142 6.03179,4.24183 2.49456,0.480408 5.11724,-0.135226 7.1741,-1.701 9.8715,-7.6118 24.9599,-6.73639 33.746,2.04974 9.05303,9.05303 9.92488,23.5685 2.05686,33.7994 -1.57645,2.00348 -2.18141,4.63327 -1.701,7.12784 0.469733,2.48745 2.04974,4.71156 4.23115,6.03179 12.1134,7.20968 25.1841,12.5938 38.8704,16.0848 0.740185,0.177929 1.49104,0.266893 2.18141,0.266893 1.8042,0 3.55146,-0.523111 5.03895,-1.53019 2.13871,-1.44478 3.53723,-3.71516 3.83971,-6.25598 1.66897,-12.8073 12.5476,-22.4333 25.362,-22.4333 12.7682,0 23.693,9.62596 25.3193,22.4333 0.345182,2.54083 1.69744,4.8112 3.83615,6.25598 2.14938,1.44122 4.7685,1.87893 7.26306,1.2633 13.6899,-3.49097 26.7605,-8.8751 38.8704,-16.0848 2.18497,-1.32023 3.71516,-3.50164 4.19912,-6.03179 0.512435,-2.49456 -0.135226,-5.12435 -1.66897,-7.12784 -7.86446,-10.2309 -6.99261,-24.7464 2.06042,-33.7567 8.82884,-8.82884 23.8638,-9.70425 33.746,-2.04974 2.01416,1.52307 4.62971,2.13871 7.12784,1.6583 2.54083,-0.480408 4.72579,-2.01771 6.03535,-4.19557 7.2168,-12.1561 12.633,-25.2303 16.0919,-38.9202 0.647662,-2.43763 0.167253,-5.06742 -1.27753,-7.20257 -1.44122,-2.13871 -3.71516,-3.53723 -6.28801,-3.85394zm-19.6754 32.9631c-16.131,-7.16342 -35.9417,-3.67245 -48.4856,8.8751 -12.8927,12.9034 -16.0492,32.3155 -8.8751,48.4856 -5.72931,2.88601 -11.6294,5.33787 -17.7075,7.35203 -6.33427,-16.5332 -22.2945,-28.0274 -40.5714,-28.0274 -18.2769,0 -34.2407,11.4942 -40.5714,28.0274 -6.07805,-2.01416 -12.0209,-4.46602 -17.7502,-7.35203 7.2168,-16.1275 4.06034,-35.5822 -8.87866,-48.4856 -8.1705,-8.1705 -19.0598,-12.6721 -30.6002,-12.6721 -6.16702,0 -12.2878,1.31312 -17.8819,3.797 -2.88957,-5.71864 -5.34143,-11.665 -7.34135,-17.7395 16.5189,-6.34495 28.0238,-22.3052 28.0238,-40.5714 0,-18.2342 -11.5049,-34.2407 -28.0238,-40.5749 1.99992,-6.0745 4.45178,-12.0316 7.34135,-17.7075 5.59409,2.48745 11.7148,3.79345 17.8819,3.79345 11.5832,0 22.4297,-4.49804 30.6465,-12.665 12.8927,-12.907 16.0492,-32.3582 8.83239,-48.4856 5.72931,-2.88957 11.6721,-5.38413 17.7502,-7.35558 6.33071,16.4869 22.2945,27.9811 40.5714,27.9811 18.2769,0 34.2371,-11.4942 40.5714,-27.9811 6.07805,2.01416 12.0209,4.46602 17.7075,7.35558 -7.2168,16.1275 -4.01764,35.5787 8.8751,48.4856 8.21676,8.16694 19.0598,12.665 30.6465,12.665 6.16346,0 12.2415,-1.306 17.8392,-3.79345 2.93227,5.7222 5.3699,11.633 7.38405,17.7075 -16.5189,6.33427 -28.0238,22.3408 -28.0238,40.5749 0,18.2662 11.5049,34.2264 28.0238,40.5714 -2.01416,6.0745 -4.45178,12.0209 -7.38405,17.7395zm-115.682 -136.009c-42.799,0 -77.6909,34.8421 -77.6909,77.698 0,42.8417 34.8919,77.6838 77.6909,77.6838 42.8417,0 77.6838,-34.8421 77.6838,-77.6838 0,-42.856 -34.8421,-77.698 -77.6838,-77.698zm0 137.5c-32.9667,0 -59.7699,-26.8424 -59.7699,-59.8019 0,-32.9738 26.8032,-59.8126 59.7699,-59.8126 33.0023,0 59.809,26.8388 59.809,59.8126 0,32.9596 -26.8068,59.8019 -59.809,59.8019zm0 -102.256c-23.3941,0 -42.4539,19.0633 -42.4539,42.4539 0,23.3799 19.0598,42.4503 42.4539,42.4503 23.4332,0 42.4966,-19.0704 42.4966,-42.4503 0,-23.3905 -19.0633,-42.4539 -42.4966,-42.4539zm0 59.197c-9.22384,0 -16.7467,-7.47658 -16.7467,-16.7431 0,-9.23451 7.52284,-16.7538 16.7467,-16.7538 9.26654,0 16.7858,7.51928 16.7858,16.7538 0,9.26654 -7.51928,16.7431 -16.7858,16.7431z"/>
  <polygon class="fil0" points="577.145,0.519553 593.062,0.519553 593.062,509.795 577.145,509.795 "/>
  <path class="fil1" d="M723.694 123.127c-3.65822,4.96778 -9.43024,9.38753 -17.3872,13.2237 -7.96054,3.83259 -18.1772,5.76846 -30.7248,5.76846 -15.9531,0 -28.8281,-4.17421 -38.6106,-12.5191 -9.75407,-8.3164 -14.6293,-20.1878 -14.6293,-35.5894l0 -38.8134c0,-15.188 4.73291,-26.9064 14.1596,-35.2548 9.46938,-8.31284 22.0525,-12.4871 37.7174,-12.4871 15.4869,0 27.426,3.40556 35.8171,10.2487 8.38757,6.81112 12.4728,16.1702 12.1881,28.0416l-0.217073 0.523111 -20.0775 0c0,-7.82532 -2.29528,-13.9283 -6.94991,-18.2875 -4.66174,-4.32367 -11.4408,-6.50153 -20.3302,-6.50153 -9.61172,0 -17.1381,2.85042 -22.6575,8.59041 -5.48733,5.7044 -8.24879,14.0208 -8.24879,24.9421l0 38.9985c0,11.1348 2.87177,19.6327 8.57262,25.4937 5.70084,5.82895 13.4763,8.74343 23.266,8.74343 7.20612,0 12.9746,-0.950141 17.2805,-2.85042 4.30232,-1.93587 7.45522,-4.26674 9.39109,-7.02819l0 -30.465 -28.1412 0 0 -13.3162 49.5817 0 0 48.539zm67.0081 18.9921c-14.1276,0 -25.2054,-4.45178 -33.2336,-13.3162 -8.03171,-8.86798 -12.0102,-20.4049 -12.0102,-34.6107l0 -4.23471c0,-14.2663 3.97849,-25.9563 11.9711,-35.0983 7.96054,-9.14199 18.3943,-13.7148 31.3013,-13.7148 12.9426,0 22.8034,3.92867 29.5398,11.7825 6.77554,7.85379 10.1455,18.4085 10.1455,31.6642l0 10.2167 -61.6631 0c0,9.97114 2.07821,18.01 6.27378,24.2055 4.15998,6.16702 10.5441,9.23451 19.1452,9.23451 5.94995,0 11.149,-0.797122 15.5617,-2.35934 4.40552,-1.5978 8.45519,-3.92867 12.1881,-6.9677l6.91788 11.3234c-3.76498,3.34506 -8.78257,6.16702 -14.9496,8.43739 -6.2026,2.27037 -13.2628,3.43759 -21.1878,3.43759zm-1.97145 -86.9219c-6.16702,0 -11.0779,2.42339 -14.7325,7.30221 -3.62263,4.87881 -5.91792,11.3519 -6.81824,19.3907l40.2297 0 0 -2.08533c0,-7.30221 -1.50528,-13.2237 -4.55498,-17.7965 -3.04614,-4.54075 -7.77906,-6.81112 -14.124,-6.81112zm107.622 2.9465l-9.24875 -0.430588c-4.48381,0 -8.20964,1.13519 -11.1846,3.43759 -2.97853,2.33087 -5.27026,5.55138 -6.88229,9.75407l0 69.3105 -21.4084 0 0 -97.2595 19.6505 0 1.46969 14.3873c2.5088,-5.09233 5.73643,-9.0815 9.64375,-11.9034 3.94291,-2.85398 8.4623,-4.29521 13.5511,-4.29521 1.32735,0 2.58353,0.12455 3.72939,0.338065 1.14586,0.213515 2.18497,0.459057 3.12087,0.765095l-2.44119 15.8962zm56.4996 83.9754c-14.124,0 -25.2019,-4.45178 -33.23,-13.3162 -8.03171,-8.86798 -12.0102,-20.4049 -12.0102,-34.6107l0 -4.23471c0,-14.2663 3.97849,-25.9563 11.9711,-35.0983 7.96054,-9.14199 18.3943,-13.7148 31.3013,-13.7148 12.9426,0 22.8034,3.92867 29.5398,11.7825 6.77554,7.85379 10.1455,18.4085 10.1455,31.6642l0 10.2167 -61.6631 0c0,9.97114 2.07821,18.01 6.27378,24.2055 4.15998,6.16702 10.5405,9.23451 19.1452,9.23451 5.94995,0 11.149,-0.797122 15.5617,-2.35934 4.40552,-1.5978 8.45519,-3.92867 12.1846,-6.9677l6.92144 11.3234c-3.76498,3.34506 -8.78257,6.16702 -14.9496,8.43739 -6.2026,2.27037 -13.2628,3.43759 -21.1913,3.43759zm-1.96789 -86.9219c-6.16702,0 -11.0779,2.42339 -14.7325,7.30221 -3.62263,4.87881 -5.91792,11.3519 -6.81824,19.3907l40.2262 0 0 -2.08533c0,-7.30221 -1.50528,-13.2237 -4.55142,-17.7965 -3.0497,-4.54075 -7.77906,-6.81112 -14.124,-6.81112zm78.2211 -12.2415l1.25618 14.4799c3.22763,-5.15282 7.2773,-9.17402 12.1917,-11.996 4.91084,-2.85398 10.4658,-4.29521 16.704,-4.29521 10.0779,0 17.9281,3.19205 23.5578,9.54055 5.6617,6.35206 8.4623,16.2307 8.4623,29.6714l0 59.8589 -21.3337 0 0 -59.7663c0,-9.17402 -1.46969,-15.6471 -4.44467,-19.4227 -2.97853,-3.77209 -7.49081,-5.67593 -13.4799,-5.67593 -4.91084,0 -9.10641,1.10316 -12.6223,3.28457 -3.51232,2.20632 -6.30936,5.21332 -8.39113,9.04947l0 72.531 -21.4333 0 0 -97.2595 19.533 0zm126.02 85.292c5.27026,0 9.64375,-1.71524 13.1952,-5.21332 3.54435,-3.46606 5.30584,-8.16338 5.30584,-14.1133l19.2128 0 0.217073 0.55158c0.288245,9.17402 -3.33439,16.9068 -10.8288,23.1948 -7.49081,6.29157 -16.526,9.45159 -27.1021,9.45159 -13.9852,0 -24.8069,-4.57277 -32.4471,-13.7148 -7.63315,-9.14555 -11.4337,-20.8035 -11.4337,-35.0093l0 -3.43759c0,-14.1418 3.80056,-25.8033 11.4337,-35.0057 7.64027,-9.20605 18.4619,-13.8073 32.4471,-13.8073 11.3661,0 20.5793,3.28457 27.6786,9.85015 7.13495,6.56558 10.5725,15.0955 10.359,25.5862l-0.213515 0.430588 -19.3231 0c0,-6.47306 -1.68677,-11.722 -5.09589,-15.7716 -3.40556,-4.04966 -7.85023,-6.04247 -13.4052,-6.04247 -7.95698,0 -13.729,3.28101 -17.2805,9.87862 -3.51588,6.59761 -5.30584,14.882 -5.30584,24.8816l0 3.43759c0,10.1882 1.75794,18.5331 5.27026,25.0666 3.51588,6.53711 9.28789,9.78609 17.316,9.78609zm80.7015 11.9675l-21.4369 0 0 -97.2595 21.4369 0 0 97.2595zm0 -122.789l-21.4369 0 0 -17.4264 21.4369 0 0 17.4264zm85.0358 122.789c-0.896762,-2.9465 -1.61204,-5.55494 -2.14938,-7.85379 -0.50176,-2.33087 -0.861176,-4.60124 -1.00708,-6.87162 -3.01056,4.78629 -6.95346,8.74343 -11.8999,11.9034 -4.94643,3.12799 -10.5761,4.72579 -16.8534,4.72579 -10.1775,0 -17.9566,-2.57997 -23.3728,-7.73279 -5.44819,-5.15638 -8.13491,-12.213 -8.13491,-21.1415 0,-9.17402 3.76498,-16.3837 11.2914,-21.6611 7.5264,-5.27737 17.9957,-7.91428 31.4401,-7.91428l17.4228 0 0 -9.97114c0,-5.92148 -1.53731,-10.5547 -4.58701,-13.8998 -3.08529,-3.31304 -7.49081,-4.97134 -13.2628,-4.97134 -5.16706,0 -9.28789,1.44478 -12.334,4.29521 -3.0497,2.88601 -4.55498,6.56914 -4.55498,11.0779l-20.3978 0.0925231 -0.177929 -0.55158c-0.434147,-7.54775 2.97141,-14.2059 10.2843,-19.9458 7.2773,-5.7649 16.7787,-8.65091 28.5398,-8.65091 11.2914,0 20.4369,2.85398 27.426,8.49789 6.98905,5.67593 10.5049,13.7468 10.5049,24.241l0 45.1299c0,3.71516 0.288245,7.30221 0.861176,10.8323 0.533787,3.49808 1.43411,6.96414 2.61556,10.3697l-21.654 0zm-27.4971 -12.149c5.8076,0 10.9355,-1.53375 15.4158,-4.6048 4.48025,-3.09596 7.41964,-6.83959 8.81816,-11.1953l0 -17.2769 -17.7466 0c-6.55846,0 -11.722,1.77929 -15.4158,5.3699 -3.72939,3.55858 -5.59053,7.85379 -5.59053,12.8856 0,4.51228 1.28821,8.10289 3.80056,10.8003 2.50524,2.70096 6.09585,4.0212 10.7184,4.0212zm66.0401 -35.3153c0,-15.5866 3.33083,-28.0736 9.99961,-37.4932 6.63319,-9.38753 15.9887,-14.1133 28.0345,-14.1133 5.38413,0 10.2238,1.04266 14.4905,3.13155 4.26318,2.0533 7.95698,5.03183 11.0387,8.92492l0 -53.2008 21.3301 0 0 140.215 -17.6719 0 -2.18497 -11.6899c-3.15646,4.44822 -6.99617,7.82532 -11.5476,10.1242 -4.55498,2.3024 -9.78609,3.46962 -15.6649,3.46962 -11.9746,0 -21.2625,-4.35926 -27.8921,-13.0102 -6.60117,-8.65091 -9.932,-20.1594 -9.932,-34.4542l0 -1.90384zm21.2234 1.90384c0,10.1847 1.79352,18.284 5.37701,24.298 3.55146,6.014 9.14555,9.05303 16.6719,9.05303 4.7685,0 8.81816,-1.10672 12.1525,-3.25254 3.33439,-2.14938 6.02112,-5.21688 8.13847,-9.17402l0 -47.0978c-2.11735,-4.01764 -4.83967,-7.20968 -8.20964,-9.57258 -3.33439,-2.3629 -7.35203,-3.55858 -11.9746,-3.55858 -7.56198,0 -13.124,3.46606 -16.7396,10.4017 -3.59061,6.90364 -5.41616,15.9246 -5.41616,26.9989l0 1.90384zm84.3597 -4.14219c0,-14.4514 3.97849,-26.2943 11.9711,-35.5004 7.95698,-9.23451 18.9316,-13.8678 32.8777,-13.8678 13.9105,0 24.878,4.63327 32.9097,13.8678 8.03171,9.20605 12.0458,21.049 12.0458,35.5004l0 2.42339c0,14.5119 -4.01408,26.3228 -11.9711,35.4684 -7.99613,9.14199 -18.9352,13.7148 -32.771,13.7148 -14.0884,0 -25.1342,-4.57277 -33.0912,-13.7148 -7.99257,-9.14555 -11.9711,-20.9565 -11.9711,-35.4684l0 -2.42339zm21.4013 2.42339c0,10.3697 1.97145,18.8391 5.84319,25.4332 3.87173,6.59761 9.82524,9.87862 17.8178,9.87862 7.74703,0 13.5867,-3.31304 17.4584,-9.90709 3.91088,-6.62963 5.84675,-15.0955 5.84675,-25.4047l0 -2.42339c0,-10.1882 -1.97501,-18.6256 -5.87877,-25.3122 -3.94646,-6.69013 -9.82524,-10.0032 -17.6399,-10.0032 -7.85379,0 -13.7326,3.31304 -17.6043,10.0032 -3.87173,6.68657 -5.84319,15.124 -5.84319,25.3122l0 2.42339zm137.486 -34.7922l-9.24519 -0.430588c-4.48381,0 -8.20964,1.13519 -11.1882,3.43759 -2.97497,2.33087 -5.2667,5.55138 -6.88229,9.75407l0 69.3105 -21.4049 0 0 -97.2595 19.6469 0 1.47325 14.3873c2.50524,-5.09233 5.73287,-9.0815 9.64375,-11.9034 3.93935,-2.85398 8.45874,-4.29521 13.5511,-4.29521 1.32379,0 2.57997,0.12455 3.72939,0.338065 1.1423,0.213515 2.18141,0.459057 3.11732,0.765095l-2.44119 15.8962z"/>
  <path class="fil1" d="M766.002 427.204l0 59.8482 -24.604 0 0 -151.791 57.3145 0c16.704,0 29.8138,4.23471 39.3259,12.6685 9.47294,8.46586 14.2236,19.5686 14.2236,33.3012 0,13.8429 -4.7507,24.9812 -14.2236,33.3759 -9.51208,8.39825 -22.6219,12.5974 -39.3259,12.5974l-32.7105 0zm0 -16.2627l32.7105 0c9.51208,0 16.7467,-2.77213 21.6682,-8.39469 4.96066,-5.58697 7.40185,-12.633 7.40185,-21.1024 0,-8.53703 -2.44119,-15.6542 -7.32,-21.3479 -4.88237,-5.72931 -12.1561,-8.57618 -21.75,-8.57618l-32.7105 0 0 59.4212zm165.865 -19.0704l-10.6686 -0.498201c-5.17062,0 -9.46938,1.31667 -12.8999,3.98561 -3.43403,2.70452 -6.08161,6.44103 -7.94275,11.3163l0 80.3776 -24.6859 0 0 -112.793 22.661 0 1.69388 16.6862c2.89668,-5.90724 6.61896,-10.5334 11.1277,-13.8037 4.54431,-3.30948 9.75407,-4.98201 15.6293,-4.98201 1.53019,0 2.97497,0.142343 4.29876,0.391444 1.32379,0.249101 2.52303,0.533787 3.59772,0.889645l-2.81128 18.4299zm12.7397 37.5395c0,-16.7609 4.59057,-30.4935 13.8073,-41.1692 9.18114,-10.7078 21.839,-16.0812 37.9202,-16.0812 16.0492,0 28.6999,5.37346 37.9629,16.0812 9.26654,10.6757 13.8963,24.4083 13.8963,41.1692l0 2.81128c0,16.8285 -4.62971,30.5291 -13.8108,41.1301 -9.22384,10.6046 -21.8354,15.9069 -37.7992,15.9069 -16.2485,0 -28.9882,-5.30228 -38.1693,-15.9069 -9.21672,-10.601 -13.8073,-24.3015 -13.8073,-41.1301l0 -2.81128zm24.6859 2.81128c0,12.0244 2.27393,21.8461 6.73995,29.4971 4.46602,7.65095 11.3341,11.4551 20.5508,11.4551 8.93559,0 15.6755,-3.83971 20.1416,-11.4907 4.50872,-7.68653 6.73995,-17.5082 6.73995,-29.4615l0 -2.81128c0,-11.8145 -2.27393,-21.597 -6.78265,-29.3547 -4.54786,-7.7577 -11.3305,-11.601 -20.348,-11.601 -9.05303,0 -15.8357,3.84327 -20.3017,11.601 -4.46602,7.7577 -6.73995,17.5402 -6.73995,29.3547l0 2.81128zm97.7613 -0.213515c0,-18.0776 3.84682,-32.5574 11.5334,-43.4823 7.65095,-10.8857 18.4477,-16.3659 32.3404,-16.3659 6.2026,0 11.786,1.20992 16.7075,3.62975 4.92152,2.38425 9.18114,5.83251 12.7362,10.3519l0 -61.6987 24.604 0 0 162.609 -20.3835 0 -2.52303 -13.5582c-3.64043,5.15994 -8.06374,9.07438 -13.3162,11.7433 -5.25246,2.66893 -11.2914,4.0212 -18.074,4.0212 -13.8108,0 -24.5222,-5.05318 -32.1731,-15.0884 -7.60468,-10.0316 -11.4515,-23.3763 -11.4515,-39.9557l0 -2.20632zm24.4795 2.20632c0,11.8109 2.06753,21.2056 6.2026,28.1804 4.09593,6.97482 10.5476,10.4943 19.227,10.4943 5.50156,0 10.174,-1.27753 14.0208,-3.76854 3.84682,-2.49101 6.94991,-6.04959 9.38753,-10.6402l0 -54.6171c-2.43763,-4.66174 -5.58341,-8.36266 -9.46938,-11.1028 -3.84682,-2.74011 -8.4801,-4.12795 -13.8144,-4.12795 -8.72208,0 -15.1311,4.0212 -19.3089,12.0636 -4.13507,8.0068 -6.24531,18.4655 -6.24531,31.3119l0 2.20632zm172.773 36.3651c-3.55146,5.97486 -8.06018,10.5654 -13.5617,13.8037 -5.50156,3.23831 -11.8679,4.87525 -19.1452,4.87525 -12.0351,0 -21.4654,-4.0212 -28.248,-11.9924 -6.77554,-8.00325 -10.1669,-20.4227 -10.1669,-37.2156l0 -65.791 24.725 0 0 66.0045c0,12.06 1.6156,20.5294 4.83967,25.3691 3.22763,4.83967 8.14915,7.25594 14.761,7.25594 6.08161,0 11.2095,-1.24194 15.4691,-3.66178 4.21692,-2.41983 7.5691,-5.90724 10.0032,-10.4266l0 -84.5412 24.6859 0 0 112.793 -20.9636 0 -2.39848 -16.4727zm97.1385 2.5942c6.07805,0 11.1241,-1.98925 15.22,-6.04603 4.09237,-4.0212 6.12076,-9.46582 6.12076,-16.3695l22.1628 0 0.249101 0.640544c0.330948,10.6402 -3.84682,19.6078 -12.4906,26.8993 -8.64023,7.29509 -19.0633,10.9604 -31.2621,10.9604 -16.1275,0 -28.6145,-5.30228 -37.4256,-15.9069 -8.80393,-10.601 -13.1881,-24.1236 -13.1881,-40.5963l0 -3.98561c0,-16.4051 4.38417,-29.9241 13.1881,-40.5998 8.81104,-10.6722 21.2981,-16.0101 37.4256,-16.0101 13.1098,0 23.7393,3.80768 31.924,11.4195 8.23099,7.61536 12.1988,17.5082 11.9533,29.675l-0.249101 0.498201 -22.2874 0c0,-7.50504 -1.94298,-13.5902 -5.87522,-18.2875 -3.92867,-4.69733 -9.05659,-7.0104 -15.4656,-7.0104 -9.17758,0 -15.8357,3.80768 -19.9316,11.4586 -4.05322,7.65095 -6.12076,17.2556 -6.12076,28.8565l0 3.98561c0,11.8109 2.02839,21.4903 6.08161,29.07 4.04966,7.57977 10.7113,11.3483 19.9707,11.3483zm7.98189 14.3055l-1.32379 6.04959c4.63327,0.711716 8.43739,2.45542 11.4551,5.2667 3.02123,2.81128 4.55142,7.04243 4.55142,12.665 0,6.79689 -2.97853,12.2415 -8.89289,16.2627 -5.95706,4.0212 -14.4336,6.04603 -25.3905,6.04603l-0.619193 -11.7753c4.38417,0 7.89293,-0.889645 10.6259,-2.59776 2.68673,-1.7437 4.05322,-4.37705 4.05322,-7.93563 0,-3.48741 -1.24194,-5.90724 -3.64043,-7.2595 -2.44119,-1.35226 -6.52999,-2.27393 -12.3625,-2.73655l3.14223 -13.9852 18.4014 0zm126.874 -0.42703c-1.03555,-3.41624 -1.86114,-6.44103 -2.48389,-9.10996 -0.57649,-2.70452 -0.992844,-5.33787 -1.15654,-7.96766 -3.47317,5.54783 -8.0246,10.1384 -13.7326,13.8037 -5.7044,3.62975 -12.1953,5.48021 -19.4334,5.48021 -11.7433,0 -20.7181,-2.98921 -26.9634,-8.96762 -6.28445,-5.97841 -9.38397,-14.1596 -9.38397,-24.5151 0,-10.6402 4.34147,-18.9993 13.0208,-25.12 8.68649,-6.12076 20.7643,-9.18114 36.269,-9.18114l20.0989 0 0 -11.5618c0,-6.86806 -1.77929,-12.2415 -5.29161,-16.1204 -3.55858,-3.84327 -8.64379,-5.7649 -15.3055,-5.7649 -5.94995,0 -10.7078,1.67253 -14.2201,4.98201 -3.51588,3.34506 -5.25246,7.61536 -5.25246,12.8465l-23.5293 0.106757 -0.206398 -0.640544c-0.498201,-8.75411 3.42691,-16.4762 11.8643,-23.1308 8.39469,-6.68657 19.3551,-10.0316 32.9169,-10.0316 13.028,0 23.5756,3.30948 31.6358,9.85371 8.06374,6.58337 12.117,15.9424 12.117,28.1128l0 52.3396c0,4.30588 0.330948,8.46942 0.992844,12.5582 0.619193,4.05678 1.65474,8.07798 3.01768,12.028l-24.9741 0zm-31.7176 -14.092c6.69369,0 12.608,-1.77573 17.7787,-5.33431 5.17062,-3.59417 8.56194,-7.93563 10.174,-12.9888l0 -20.0312 -20.4725 0c-7.56198,0 -13.519,2.06398 -17.7787,6.22751 -4.30232,4.12439 -6.4517,9.10641 -6.4517,14.9425 0,5.23111 1.48749,9.39465 4.38417,12.5262 2.89313,3.13155 7.03175,4.65818 12.3661,4.65818zm44.6993 -143.962c0,6.40544 -2.06753,11.7789 -6.12076,16.156 -4.09237,4.37705 -9.22028,6.57981 -15.4656,6.57981 -5.00336,0 -10.3804,-1.70812 -16.0883,-5.1208 -5.74355,-3.38065 -10.3768,-5.08877 -13.9318,-5.08877 -2.85398,0 -5.17062,1.17433 -7.03175,3.48741 -1.86114,2.31308 -2.81128,5.19197 -2.81128,8.6082l-13.4408 -2.91804c0,-6.25954 2.02483,-11.633 6.12076,-16.1524 4.09237,-4.5194 9.22028,-6.79689 15.4656,-6.79689 4.01408,0 9.14199,1.7437 15.3837,5.15994 6.2026,3.45182 11.0814,5.15994 14.64,5.15994 2.68673,0 5.00336,-1.17433 6.98905,-3.52299 1.94298,-2.38425 2.93583,-5.30228 2.93583,-8.75411l13.3553 3.20272zm31.1411 100.412c0,-16.7609 4.59057,-30.4935 13.8108,-41.1692 9.18114,-10.7078 21.8354,-16.0812 37.9202,-16.0812 16.0456,0 28.6999,5.37346 37.9629,16.0812 9.26298,10.6757 13.8963,24.4083 13.8963,41.1692l0 2.81128c0,16.8285 -4.63327,30.5291 -13.8144,41.1301 -9.22384,10.6046 -21.8319,15.9069 -37.7957,15.9069 -16.2485,0 -28.9882,-5.30228 -38.1693,-15.9069 -9.22028,-10.601 -13.8108,-24.3015 -13.8108,-41.1301l0 -2.81128zm24.6859 2.81128c0,12.0244 2.27749,21.8461 6.74351,29.4971 4.46602,7.65095 11.3305,11.4551 20.5508,11.4551 8.93204,0 15.6755,-3.83971 20.1416,-11.4907 4.50872,-7.68653 6.73995,-17.5082 6.73995,-29.4615l0 -2.81128c0,-11.8145 -2.27393,-21.597 -6.78265,-29.3547 -4.54786,-7.7577 -11.3305,-11.601 -20.348,-11.601 -9.05303,0 -15.8357,3.84327 -20.3017,11.601 -4.46602,7.7577 -6.74351,17.5402 -6.74351,29.3547l0 2.81128z"/>
  <path class="fil1" d="M689.61 268.662l0.608517 0 36.5431 -98.9107 27.1875 0 0 121.216 -21.1166 0 0 -87.3169 -0.640544 -0.0854059 -34.9737 87.4023 -14.5404 0 -35.4719 -88.7403 -0.647662 0.0854059 0 88.6549 -21.1095 0 0 -121.216 27.7178 0 36.4434 98.9107zm149.329 22.3052c-0.893204,-2.72943 -1.60492,-5.14215 -2.14226,-7.27374 -0.50176,-2.16006 -0.861176,-4.26318 -1.00352,-6.3663 -2.99988,4.43399 -6.92855,8.09933 -11.8607,11.0245 -4.92863,2.90024 -10.537,4.37705 -16.7894,4.37705 -10.142,0 -17.8961,-2.38781 -23.2945,-7.15986 -5.42683,-4.77561 -8.10644,-11.3092 -8.10644,-19.5793 0,-8.49433 3.75074,-15.1738 11.2522,-20.0597 7.50504,-4.88593 17.9317,-7.33067 31.3333,-7.33067l17.3588 0 0 -9.23451c0,-5.48377 -1.53375,-9.77542 -4.57277,-12.8714 -3.07461,-3.07105 -7.4659,-4.6048 -13.2166,-4.6048 -5.14571,0 -9.25231,1.33447 -12.2878,3.97849 -3.03903,2.67249 -4.53719,6.08161 -4.53719,10.2594l-20.3266 0.0854059 -0.177929 -0.512435c-0.430588,-6.98905 2.96074,-13.1561 10.2487,-18.469 7.25239,-5.34143 16.7182,-8.01392 28.4366,-8.01392 11.2522,0 20.3658,2.64402 27.3335,7.87158 6.96414,5.25602 10.4622,12.729 10.4622,22.4475l0 41.7955c0,3.44115 0.288245,6.76486 0.861176,10.0316 0.537346,3.23831 1.42699,6.4517 2.60844,9.60461l-21.5792 0zm-27.4046 -11.2522c5.78981,0 10.8999,-1.41987 15.3659,-4.26318 4.46246,-2.86822 7.39473,-6.33427 8.78613,-10.3697l0 -15.9994 -17.6826 0c-6.54067,0 -11.6793,1.64762 -15.3624,4.97489 -3.71516,3.29524 -5.56918,7.27374 -5.56918,11.9319 0,4.17777 1.28109,7.50149 3.78277,10.0032 2.50168,2.50168 6.07094,3.72227 10.6793,3.72227zm89.0641 -78.8225l1.24906 13.4123c3.21696,-4.77561 7.25239,-8.49789 12.149,-11.1099 4.89305,-2.64402 10.4338,-3.97849 16.647,-3.97849 10.0388,0 17.8605,2.95362 23.4688,8.83595 5.64747,5.88233 8.43028,15.0314 8.43028,27.4794l0 55.4356 -21.2554 0 0 -55.3501c0,-8.49789 -1.46258,-14.4941 -4.43043,-17.9886 -2.9643,-3.49453 -7.4659,-5.25602 -13.4301,-5.25602 -4.89305,0 -9.07438,1.02131 -12.576,3.03903 -3.49808,2.04618 -6.28801,4.83255 -8.3591,8.38401l0 67.1718 -21.3622 0 0 -90.0748 19.469 0zm147.147 76.9187c-3.07461,4.77206 -6.96414,8.44095 -11.7184,11.0245 -4.7507,2.58709 -10.2523,3.89309 -16.5403,3.89309 -10.3946,0 -18.5402,-3.20984 -24.4012,-9.57614 -5.85386,-6.39121 -8.78613,-16.309 -8.78613,-29.7213l0 -52.5389 21.3622 0 0 52.7097c0,9.63308 1.3914,16.3944 4.18133,20.259 2.78637,3.86462 7.03531,5.79693 12.7539,5.79693 5.25246,0 9.6829,-0.992844 13.3589,-2.92515 3.64754,-1.93231 6.53711,-4.71868 8.64379,-8.32708l0 -67.5134 21.3301 0 0 90.0748 -18.1132 0 -2.07109 -13.1561zm71.8762 -99.3093l0 22.3906 17.7217 0 0 12.0778 -17.7217 0 0 53.6171c0,4.66174 0.893204,7.95698 2.67961,9.94623 1.78641,1.96078 4.14219,2.95362 7.07446,2.95362 1.18145,0 2.28461,-0.0854059 3.3593,-0.256218 1.03199,-0.170812 2.24902,-0.42703 3.64043,-0.736626l2.217 11.6472c-2.03551,0.768653 -4.28809,1.39496 -6.75418,1.87537 -2.49812,0.455498 -5.03539,0.711716 -7.715,0.711716 -8.14203,0 -14.5048,-2.10312 -19.042,-6.30936 -4.53719,-4.17421 -6.78621,-10.7967 -6.78621,-19.832l0 -53.6171 -14.9674 0 0 -12.0778 14.9674 0 0 -22.3906 21.3266 0zm77.8795 114.227c-14.0742,0 -25.1129,-4.12084 -33.1161,-12.3305 -7.99969,-8.2132 -11.9639,-18.8961 -11.9639,-32.0521l0 -3.92155c0,-13.213 3.96426,-24.0382 11.9319,-32.5076 7.92852,-8.46586 18.3267,-12.7006 31.1838,-12.7006 12.8999,0 22.7251,3.63687 29.4401,10.9106 6.75063,7.27374 10.1064,17.0492 10.1064,29.3227l0 9.46226 -61.4424 0c0,9.23807 2.07109,16.6826 6.24887,22.4191 4.14575,5.71152 10.5014,8.55483 19.0775,8.55483 5.92859,0 11.1099,-0.740185 15.5047,-2.18853 4.39129,-1.47681 8.43383,-3.63687 12.1454,-6.44815l6.89653 10.4836c-3.75074,3.09596 -8.75411,5.71152 -14.8998,7.81464 -6.17769,2.10312 -13.2166,3.18137 -21.1131,3.18137zm-1.96434 -80.4986c-6.14211,0 -11.0387,2.24546 -14.6827,6.7613 -3.6084,4.5194 -5.89301,10.5156 -6.78977,17.9602l40.0838 0 0 -1.93231c0,-6.76486 -1.49816,-12.2486 -4.53719,-16.4798 -3.03191,-4.20624 -7.74703,-6.30936 -14.0742,-6.30936zm77.9507 -11.3376l1.24906 13.4123c3.21696,-4.77561 7.25239,-8.49789 12.149,-11.1099 4.89305,-2.64402 10.4302,-3.97849 16.647,-3.97849 10.0388,0 17.8605,2.95362 23.4688,8.83595 5.64747,5.88233 8.43028,15.0314 8.43028,27.4794l0 55.4356 -21.2554 0 0 -55.3501c0,-8.49789 -1.46258,-14.4941 -4.43043,-17.9886 -2.9643,-3.49453 -7.4659,-5.25602 -13.4301,-5.25602 -4.89661,0 -9.07438,1.02131 -12.576,3.03903 -3.49808,2.04618 -6.28801,4.83255 -8.3591,8.38401l0 67.1718 -21.3586 0 0 -90.0748 19.4654 0zm125.568 78.9934c5.25246,0 9.61172,-1.59069 13.149,-4.83255 3.53723,-3.20984 5.28449,-7.55486 5.28449,-13.0707l19.1487 0 0.217073 0.512435c0.284686,8.49789 -3.32727,15.6578 -10.7896,21.4831 -7.4659,5.82539 -16.4691,8.75055 -27.0096,8.75055 -13.9318,0 -24.7179,-4.23471 -32.3297,-12.7006 -7.60824,-8.46942 -11.3946,-19.2662 -11.3946,-32.4222l0 -3.18137c0,-13.0991 3.78633,-23.8959 11.3946,-32.4222 7.6118,-8.5228 18.3979,-12.786 32.3297,-12.786 11.3234,0 20.5045,3.03903 27.579,9.12064 7.11004,6.08161 10.5405,13.9817 10.327,23.6966l-0.217073 0.398561 -19.2555 0c0,-5.99621 -1.67609,-10.8537 -5.07453,-14.6044 -3.39133,-3.75074 -7.8182,-5.59765 -13.3589,-5.59765 -7.93207,0 -13.6792,3.03903 -17.22,9.14911 -3.49808,6.11008 -5.28449,13.7824 -5.28449,23.0454l0 3.18137c0,9.43379 1.75082,17.163 5.24891,23.2162 3.5052,6.05314 9.25231,9.0637 17.2556,9.0637zm6.89653 11.423l-1.1423 4.82899c3.99984,0.569373 7.28797,1.96078 9.89285,4.20624 2.60844,2.24546 3.93223,5.62611 3.93223,10.117 0,5.42683 -2.57285,9.77186 -7.68297,12.9853 -5.14215,3.20984 -12.4693,4.82899 -21.9351,4.82899l-0.533787 -9.40533c3.78633,0 6.82536,-0.711716 9.18114,-2.07465 2.32375,-1.3914 3.49808,-3.49453 3.49808,-6.33427 0,-2.78637 -1.06757,-4.71868 -3.13867,-5.79693 -2.1138,-1.08181 -5.64747,-1.81843 -10.6829,-2.18853l2.7152 -11.1668 15.8962 0zm109.604 -0.341624c-0.896762,-2.72943 -1.60492,-5.14215 -2.14226,-7.27374 -0.50176,-2.16006 -0.861176,-4.26318 -1.00352,-6.3663 -3.00344,4.43399 -6.92855,8.09933 -11.8607,11.0245 -4.92863,2.90024 -10.537,4.37705 -16.7894,4.37705 -10.1455,0 -17.8961,-2.38781 -23.2945,-7.15986 -5.42683,-4.77561 -8.10644,-11.3092 -8.10644,-19.5793 0,-8.49433 3.75074,-15.1738 11.2522,-20.0597 7.50504,-4.88593 17.9317,-7.33067 31.3333,-7.33067l17.3588 0 0 -9.23451c0,-5.48377 -1.53375,-9.77542 -4.57277,-12.8714 -3.07461,-3.07105 -7.4659,-4.6048 -13.2166,-4.6048 -5.14571,0 -9.25231,1.33447 -12.2913,3.97849 -3.03547,2.67249 -4.53363,6.08161 -4.53363,10.2594l-20.3266 0.0854059 -0.177929 -0.512435c-0.430588,-6.98905 2.96074,-13.1561 10.2487,-18.469 7.25239,-5.34143 16.7182,-8.01392 28.4366,-8.01392 11.2522,0 20.3658,2.64402 27.3335,7.87158 6.96414,5.25602 10.4622,12.729 10.4622,22.4475l0 41.7955c0,3.44115 0.288245,6.76486 0.861176,10.0316 0.533787,3.23831 1.42699,6.4517 2.60844,9.60461l-21.5792 0zm-27.4046 -11.2522c5.78981,0 10.8999,-1.41987 15.3659,-4.26318 4.46246,-2.86822 7.39473,-6.33427 8.78613,-10.3697l0 -15.9994 -17.6826 0c-6.54067,0 -11.6793,1.64762 -15.3624,4.97489 -3.71516,3.29524 -5.56918,7.27374 -5.56918,11.9319 0,4.17777 1.28109,7.50149 3.78277,10.0032 2.50168,2.50168 6.07094,3.72227 10.6793,3.72227zm38.6213 -114.967c0,5.11724 -1.78641,9.40533 -5.28805,12.8999 -3.53367,3.49808 -7.9641,5.25958 -13.3589,5.25958 -4.32367,0 -8.96762,-1.36649 -13.8963,-4.09237 -4.96778,-2.70096 -8.96762,-4.0639 -12.0422,-4.0639 -2.46254,0 -4.46246,0.939465 -6.07094,2.78637 -1.60848,1.8469 -2.42695,4.14575 -2.42695,6.87518l-11.6116 -2.33087c0,-4.9998 1.75082,-9.29145 5.28449,-12.8999 3.53723,-3.6084 7.96766,-5.42683 13.3625,-5.42683 3.4625,0 7.89293,1.3914 13.2877,4.12084 5.35922,2.75434 9.57614,4.12084 12.6472,4.12084 2.32375,0 4.32367,-0.939465 6.03535,-2.81484 1.67965,-1.90384 2.53727,-4.23471 2.53727,-6.98905l11.5405 2.55506zm26.9029 80.189c0,-13.3838 3.96426,-24.3514 11.9319,-32.8777 7.92852,-8.55127 18.8605,-12.8429 32.7567,-12.8429 13.8607,0 24.7926,4.29165 32.7959,12.8429 7.99969,8.52636 12.0031,19.4939 12.0031,32.8777l0 2.24191c0,13.4408 -4.0034,24.3798 -11.9319,32.8492 -7.96766,8.46586 -18.8605,12.7006 -32.65,12.7006 -14.0422,0 -25.0453,-4.23471 -32.9738,-12.7006 -7.96766,-8.46942 -11.9319,-19.4085 -11.9319,-32.8492l0 -2.24191zm21.3266 2.24191c0,9.60461 1.96434,17.4477 5.82184,23.5578 3.85394,6.11008 9.78965,9.14911 17.7573,9.14911 7.71144,0 13.5368,-3.0675 17.3943,-9.17758 3.89664,-6.13855 5.82539,-13.9817 5.82539,-23.5293l0 -2.24191c0,-9.43379 -1.96434,-17.2484 -5.86098,-23.4439 -3.92867,-6.19549 -9.78965,-9.26298 -17.5758,-9.26298 -7.82532,0 -13.6863,3.0675 -17.5402,9.26298 -3.8575,6.19549 -5.82184,14.0101 -5.82184,23.4439l0 2.24191z"/>
  <path class="fil1" d="M614.866 372.651c0,-7.37338 1.35226,-13.2842 4.05322,-17.7395 2.68317,-4.44111 6.47306,-6.67945 11.3519,-6.67945 2.17785,0 4.13507,0.494643 5.86454,1.48037 1.72591,0.975051 3.22051,2.38069 4.46958,4.22759l0 -25.1734 8.64023 0 0 66.3426 -7.15986 0 -0.882528 -5.53003c-1.27753,2.10312 -2.83263,3.70092 -4.67597,4.78985 -1.84334,1.08893 -3.96426,1.64051 -6.34495,1.64051 -4.84679,0 -8.6082,-2.06042 -11.2949,-6.15634 -2.66893,-4.09237 -4.0212,-9.53699 -4.0212,-16.3019l0 -0.900321zm8.59397 0.900321c0,4.81832 0.72595,8.65091 2.17785,11.4978 1.43767,2.84331 3.70448,4.28097 6.75063,4.28097 1.93231,0 3.57281,-0.523111 4.92152,-1.53731 1.35226,-1.01775 2.44119,-2.46965 3.29524,-4.34147l0 -22.2838c-0.854059,-1.90028 -1.95722,-3.41268 -3.32371,-4.53007 -1.3487,-1.11739 -2.97497,-1.68321 -4.84679,-1.68321 -3.06394,0 -5.31652,1.64051 -6.78265,4.92152 -1.4519,3.26678 -2.19209,7.53351 -2.19209,12.7753l0 0.900321zm59.7984 21.5579c-0.362975,-1.39496 -0.65122,-2.62623 -0.871852,-3.71516 -0.202839,-1.10316 -0.348741,-2.17785 -0.405678,-3.25254 -1.22059,2.26326 -2.81484,4.13507 -4.81832,5.63323 -2.00348,1.48037 -4.28453,2.23479 -6.82536,2.23479 -4.12084,0 -7.27018,-1.22059 -9.46226,-3.65822 -2.20988,-2.43763 -3.2988,-5.77913 -3.2988,-10.0032 0,-4.34147 1.52663,-7.75059 4.57633,-10.2487 3.04614,-2.49812 7.28441,-3.74718 12.729,-3.74718l7.05666 0 0 -4.71512c0,-2.80416 -0.62631,-4.99625 -1.85758,-6.57626 -1.24906,-1.56933 -3.03547,-2.35222 -5.37346,-2.35222 -2.08889,0 -3.75786,0.679689 -4.99269,2.03195 -1.23483,1.36294 -1.84334,3.10664 -1.84334,5.24179l-8.25946 0.042703 -0.0747302 -0.263335c-0.17437,-3.56926 1.20636,-6.7186 4.1671,-9.43379 2.9465,-2.72943 6.79333,-4.09593 11.5547,-4.09593 4.57277,0 8.27726,1.35226 11.1063,4.0212 2.83263,2.68673 4.2525,6.50508 4.2525,11.4693l0 21.355c0,1.75794 0.117433,3.45538 0.348741,5.12435 0.220632,1.65474 0.583607,3.29524 1.06046,4.90728l-8.76834 0zm-11.1348 -5.74711c2.35222,0 4.42687,-0.72595 6.24175,-2.17785 1.81488,-1.46613 3.007,-3.23831 3.57281,-5.29873l0 -8.17406 -7.18477 0c-2.65826,0 -4.74715,0.839825 -6.24531,2.54083 -1.50884,1.68321 -2.26326,3.71516 -2.26326,6.09585 0,2.13515 0.523111,3.83259 1.53731,5.11012 1.01775,1.27753 2.46965,1.90384 4.34147,1.90384z"/>
 </g>
</svg>
