<?xml version="1.0" encoding="UTF-8"?>
<!DOCTYPE svg PUBLIC "-//W3C//DTD SVG 1.1//EN" "http://www.w3.org/Graphics/SVG/1.1/DTD/svg11.dtd">
<!-- Creator: CorelDRAW -->
<svg xmlns="http://www.w3.org/2000/svg" xml:space="preserve" width="73px" height="32px" style="shape-rendering:geometricPrecision; text-rendering:geometricPrecision; image-rendering:optimizeQuality; fill-rule:evenodd; clip-rule:evenodd"
viewBox="0 0 5.43168 2.42046"
 xmlns:xlink="http://www.w3.org/1999/xlink">
 <defs>
  <style type="text/css">
   <![CDATA[
    .fil0 {fill:#FEFEFE}
   ]]>
  </style>
 </defs>
 <g id="Camada_x0020_1">
  <metadata id="CorelCorpID_0Corel-Layer"/>
  <path class="fil0" d="M0.25028 1.72404c0.228812,0.083132 0.298162,0.174922 0.599593,0.162377 0.269362,-0.0111314 0.42582,-0.213617 0.156723,-0.341009 -0.339419,-0.160787 -0.753224,-0.175629 -0.938659,-0.55012 -0.305936,-0.61788 0.452411,-1.34469 1.68446,-0.808262l-0.22837 0.44446c-0.206902,-0.174657 -0.652158,-0.209199 -0.899346,-0.0491195 -0.0371046,0.0240297 -0.042847,0.0493845 -0.040285,0.0892278 0.0528299,0.418664 0.840331,0.0765946 1.21005,0.801372l0.545261 -1.42084 0.649508 -0.0113964 0.625301 1.70346 0.0227928 -1.69012 1.11367 0.0157253c0.725395,0.0662583 0.881058,0.965957 0.418487,1.36086 -0.320955,0.273867 -0.565492,0.153454 -0.907473,0.221833l-0.00344543 0.693768 -1.10174 0.00468225 -0.10354 -0.322634c-0.607898,0.0643147 -0.26415,0.042582 -0.778755,-0.00326874l-0.124124 0.323605 -0.656222 0.00353377c0.0114848,-0.0528299 0.0227928,-0.105572 0.0342776,-0.158401 -0.194446,0.113434 -0.514252,0.251075 -0.850314,0.222981 -0.222628,-0.013075 -0.500824,-0.111844 -0.660021,-0.262206l0.232169 -0.430502zm4.00916 -0.61417c0.212291,0.0475293 0.396931,0.0281818 0.532893,-0.148065 0.0767712,-0.383856 -0.205224,-0.503828 -0.532628,-0.413628l-0.000265033 0.561693zm-1.79772 0.418045c0.165557,0.0356028 0.244537,0.034631 0.408769,-0.00574238 0.013075,-0.0975322 -0.152747,-0.630514 -0.208139,-0.717445 -0.0729724,0.129866 -0.237735,0.605336 -0.20063,0.723187z"/>
 </g>
</svg>
